<svg id="Layer_1" data-name="Layer 1" xmlns="http://www.w3.org/2000/svg" xmlns:xlink="http://www.w3.org/1999/xlink" viewBox="0 0 135 135"><defs><image id="image" width="498" height="501" xlink:href="plyverse-ball-logo-removebg-preview.png"/></defs><path d="M85.56,89.39a21.93,21.93,0,0,0,43.86,0Z" style="fill:#fff"/><path d="M111.22,25.28a1.51,1.51,0,0,1-1.06-.44,60.33,60.33,0,0,0-85.32,0,1.5,1.5,0,0,1-2.12-2.12,63.32,63.32,0,0,1,89.56,0,1.49,1.49,0,0,1,0,2.12A1.51,1.51,0,0,1,111.22,25.28Z" style="fill:#33363a"/><path d="M67.5,130.83h0a62.91,62.91,0,0,1-44.78-18.55,1.5,1.5,0,0,1,2.12-2.12,60.33,60.33,0,0,0,85.32,0,1.5,1.5,0,0,1,2.12,2.12A62.91,62.91,0,0,1,67.5,130.83Z" style="fill:#33363a"/><path d="M127.93,42a1.21,1.21,0,0,0,1.14-.33,1.23,1.23,0,0,0,.32-1.14l-5.07-22.24L105.68,36.88Z" style="fill:#d965a6"/><path d="M122.86,36.31a.73.73,0,0,0,.69-.2.71.71,0,0,0,.2-.69l-3.08-13.53L109.33,33.23Z" style="fill:#d54e9c"/><path d="M128.2,43.49a3.07,3.07,0,0,1-.6-.07l-22.25-5.08a1.5,1.5,0,1,1,.67-2.92l21.81,5-5-21.81a1.5,1.5,0,1,1,2.92-.67l5.07,22.24a2.74,2.74,0,0,1-2.65,3.34Z" style="fill:#33363a"/><path d="M121.38,35.43a1.52,1.52,0,0,1-1.07-.44,1.47,1.47,0,0,1-.43-1.06,1.51,1.51,0,0,1,.43-1.06,1.56,1.56,0,0,1,2.13,0,1.5,1.5,0,0,1-1.06,2.56Z" style="fill:#33363a"/><path d="M118.19,32.25a1.5,1.5,0,0,1-1.5-1.5,1.5,1.5,0,0,1,.44-1.06,1.5,1.5,0,0,1,2.56,1.06,1.5,1.5,0,0,1-1.5,1.5Z" style="fill:#33363a"/><path d="M115,29.06a1.52,1.52,0,0,1-1.06-.44,1.49,1.49,0,0,1-.43-1.06,1.51,1.51,0,0,1,.43-1.06,1.56,1.56,0,0,1,2.12,0,1.52,1.52,0,0,1,.44,1.06,1.49,1.49,0,0,1-1.5,1.5Z" style="fill:#33363a"/><path d="M7.07,93.05a1.21,1.21,0,0,0-1.14.33,1.23,1.23,0,0,0-.32,1.14l5.07,22.24L29.32,98.12Z" style="fill:#bfa1f1"/><path d="M12.14,98.69a.75.75,0,0,0-.9.89l3.09,13.53,11.34-11.34Z" style="fill:#834be5"/><path d="M10.68,118.26a1.49,1.49,0,0,1-1.46-1.17L4.14,94.85a2.73,2.73,0,0,1,3.27-3.26l22.24,5.07A1.5,1.5,0,1,1,29,99.58l-21.81-5,5,21.82A1.5,1.5,0,0,1,11,118.22,1.24,1.24,0,0,1,10.68,118.26Z" style="fill:#33363a"/><path d="M13.62,102.57a1.5,1.5,0,0,1-1.5-1.5,1.5,1.5,0,0,1,.44-1.06,1.56,1.56,0,0,1,2.13,0,1.53,1.53,0,0,1,.43,1.06,1.49,1.49,0,0,1-1.5,1.5Z" style="fill:#33363a"/><path d="M16.81,105.75a1.52,1.52,0,0,1-1.06-.44,1.5,1.5,0,0,1-.44-1.06,1.52,1.52,0,0,1,.44-1.06,1.55,1.55,0,0,1,2.12,0,1.52,1.52,0,0,1,.44,1.06,1.5,1.5,0,0,1-.44,1.06A1.52,1.52,0,0,1,16.81,105.75Z" style="fill:#33363a"/><path d="M20,108.94a1.5,1.5,0,0,1-1.06-.44,1.52,1.52,0,0,1-.44-1.06,1.5,1.5,0,0,1,.44-1.06,1.55,1.55,0,0,1,2.12,0,1.5,1.5,0,0,1,.44,1.06,1.5,1.5,0,0,1-1.5,1.5Z" style="fill:#33363a"/><path d="M98.22,83.67a1,1,0,0,0,1.15-1.15l-4-17.41L80.81,79.7Z" style="fill:#fff"/><path d="M94.26,79.26a.6.6,0,0,0,.54-.16.57.57,0,0,0,.15-.54L92.54,68l-8.87,8.87Z" style="fill:#e4e9ed"/><path d="M98.44,85.19a2.67,2.67,0,0,1-.56-.06l-17.41-4a1.5,1.5,0,1,1,.67-2.92L97.72,82,93.94,65.44a1.5,1.5,0,1,1,2.92-.67l4,17.42a2.46,2.46,0,0,1-2.39,3Z" style="fill:#33363a"/><path d="M90.6,76.4A1.5,1.5,0,0,1,89.54,76a1.52,1.52,0,0,1-.44-1.06,1.53,1.53,0,0,1,.43-1.06,1.56,1.56,0,0,1,2.13,0,1.5,1.5,0,0,1,.44,1.06,1.5,1.5,0,0,1-1.5,1.5Z" style="fill:#33363a"/><path d="M85.5,71.3a1.49,1.49,0,0,1-1.06-.44L58.67,45.09A1.5,1.5,0,0,1,60.79,43L86.56,68.74A1.5,1.5,0,0,1,85.5,71.3Z" style="fill:#33363a"/><path d="M36.78,51.33a1,1,0,0,0-1.15,1.15l4,17.41L54.19,55.3Z" style="fill:#fff"/><path d="M40.74,55.74a.59.59,0,0,0-.7.7L42.46,67l8.87-8.87Z" style="fill:#e4e9ed"/><path d="M39.6,71.39a1.5,1.5,0,0,1-1.46-1.16l-4-17.42a2.44,2.44,0,0,1,.66-2.29,2.48,2.48,0,0,1,2.29-.65l17.4,4a1.5,1.5,0,1,1-.66,2.92L37.28,53l3.78,16.57a1.5,1.5,0,0,1-1.13,1.8A1.84,1.84,0,0,1,39.6,71.39Z" style="fill:#33363a"/><path d="M44.4,61.6a1.52,1.52,0,0,1-1.06-.44,1.5,1.5,0,0,1-.44-1.06A1.52,1.52,0,0,1,43.34,59a1.56,1.56,0,0,1,2.12,0A1.5,1.5,0,0,1,44.4,61.6Z" style="fill:#33363a"/><path d="M75.27,92.47A1.47,1.47,0,0,1,74.21,92L48.44,66.26a1.49,1.49,0,0,1,0-2.12,1.51,1.51,0,0,1,2.12,0L76.33,89.91a1.49,1.49,0,0,1,0,2.12A1.47,1.47,0,0,1,75.27,92.47Z" style="fill:#33363a"/><use transform="translate(1.9 16.04) scale(0.08 0.07)" xlink:href="#image"/><use transform="matrix(0.08, 0, 0, -0.07, 95.94, 115.66)" xlink:href="#image"/></svg>