<?xml version="1.0" encoding="utf-8"?>
<!-- Generator: Adobe Illustrator 24.3.0, SVG Export Plug-In . SVG Version: 6.00 Build 0)  -->
<svg version="1.1" id="Layer_1" xmlns="http://www.w3.org/2000/svg" xmlns:xlink="http://www.w3.org/1999/xlink" x="0px" y="0px"
	 viewBox="0 0 60 60" style="enable-background:new 0 0 60 60;" xml:space="preserve">
<style type="text/css">
	.st0{fill-rule:evenodd;clip-rule:evenodd;fill:#FFFFFF;}
</style>
<desc></desc>
<g id="People">
	<g id="Icon-34">
		<path id="price-tag" class="st0" d="M26.2,26.3c-0.4,0.4-0.4,1,0,1.4l6,6c0.2,0.2,0.5,0.3,0.7,0.3c0.3,0,0.5-0.1,0.7-0.3
			c0.4-0.4,0.4-1,0-1.4l-6-6C27.2,25.9,26.6,25.9,26.2,26.3L26.2,26.3z M23.6,30.3c-0.4-0.4-1-0.4-1.4,0c-0.4,0.4-0.4,1,0,1.4l6,6
			c0.2,0.2,0.5,0.3,0.7,0.3s0.5-0.1,0.7-0.3c0.4-0.4,0.4-1,0-1.4L23.6,30.3z M19.6,34.3c-0.4-0.4-1-0.4-1.4,0c-0.4,0.4-0.4,1,0,1.4
			l6,6c0.2,0.2,0.5,0.3,0.7,0.3s0.5-0.1,0.7-0.3c0.4-0.4,0.4-1,0-1.4L19.6,34.3z M38.5,32L27.9,21.4L13.3,36l10.6,10.6L38.5,32z
			 M28.6,19.3l12,12c0.4,0.4,0.4,1,0,1.4l-16,16c-0.2,0.2-0.5,0.3-0.7,0.3s-0.5-0.1-0.7-0.3l-12-12c-0.4-0.4-0.4-1,0-1.4l16-16
			C27.6,18.9,28.2,18.9,28.6,19.3L28.6,19.3z M51.9,36.6c-0.5-0.3-1.1-0.1-1.4,0.4L39.1,56.5c-0.8,1.4-2.7,1.9-4.1,1.1l-2.2-1.4
			c-0.5-0.3-1.1-0.2-1.4,0.3c-0.3,0.5-0.2,1.1,0.3,1.4l2.3,1.5c0.8,0.5,1.6,0.7,2.5,0.7c1.7,0,3.4-0.9,4.3-2.5l11.5-19.5
			C52.5,37.5,52.4,36.9,51.9,36.6L51.9,36.6z M59.9,5v16c0,3.1-1,5.4-3.3,7.7L26.9,58.4c-0.9,0.9-2.2,1.5-3.5,1.5s-2.6-0.5-3.5-1.5
			L1.5,40.1C0.5,39.1,0,37.9,0,36.5c0-1.3,0.5-2.6,1.5-3.5l26-25.9c-6.8-1.5-11-1.6-12.2-1.3c0.5,0.5,2.1,1.7,6.1,3.2
			c0.5,0.2,0.8,0.8,0.6,1.3c-0.2,0.5-0.8,0.8-1.3,0.6c-8.1-3.2-7.6-5-7.5-5.6c0.4-1.4,2.4-1.9,6.4-1.5c3.3,0.3,7.6,1.1,12,2.3
			C35.9,7.2,40,8.6,43,10c3.7,1.7,5.2,3.1,4.8,4.5c-0.4,1.3-2.2,1.5-2.8,1.6c0,0-0.1,0-0.1,0c-0.5,0-0.9-0.4-1-0.9
			c0-0.5,0.4-1,0.9-1.1c0.4,0,0.7-0.1,0.9-0.1c-0.4-0.4-1.5-1.1-3.2-2c-0.4,0.6-0.6,1.3-0.6,2c0,2.2,1.8,4,4,4c2.2,0,4-1.8,4-4
			s-1.8-4-4-4c-0.6,0-1-0.4-1-1c0-0.6,0.4-1,1-1c3.3,0,6,2.7,6,6s-2.7,6-6,6c-3.3,0-6-2.7-6-6c0-1,0.3-2,0.7-2.9
			C38.3,10.1,35,9,31,7.9c-0.4-0.1-0.8-0.2-1.3-0.3L2.9,34.4C2.3,35,2,35.7,2,36.5c0,0.8,0.3,1.6,0.9,2.1L21.3,57
			c1.1,1.1,3.1,1.1,4.2,0l29.7-29.7c1.9-1.9,2.7-3.7,2.7-6.3V5c0-1.7-1.3-3-3-3h-16c-2.6,0-4.3,0.8-6.3,2.7c-0.4,0.4-1,0.4-1.4,0
			c-0.4-0.4-0.4-1,0-1.4C33.5,1,35.8,0,38.9,0h16C57.7,0,59.9,2.2,59.9,5L59.9,5z"/>
	</g>
</g>
</svg>
