<svg id="Layer_1" data-name="Layer 1" xmlns="http://www.w3.org/2000/svg" viewBox="0 0 134.41 126.66"><path d="M111.22,25.28a1.51,1.51,0,0,1-1.06-.44,60.33,60.33,0,0,0-85.32,0,1.5,1.5,0,0,1-2.12-2.12,63.32,63.32,0,0,1,89.56,0,1.49,1.49,0,0,1,0,2.12A1.51,1.51,0,0,1,111.22,25.28Z" transform="translate(-0.82 -4.17)" style="fill:#33363a"/><path d="M67.5,130.83h0a62.91,62.91,0,0,1-44.78-18.55,1.5,1.5,0,0,1,2.12-2.12,60.33,60.33,0,0,0,85.32,0,1.5,1.5,0,0,1,2.12,2.12A62.91,62.91,0,0,1,67.5,130.83Z" transform="translate(-0.82 -4.17)" style="fill:#33363a"/><path d="M127.93,42a1.21,1.21,0,0,0,1.14-.33,1.23,1.23,0,0,0,.32-1.14l-5.07-22.24L105.68,36.88Z" transform="translate(-0.82 -4.17)" style="fill:#d965a6"/><path d="M122.86,36.31a.73.73,0,0,0,.69-.2.71.71,0,0,0,.2-.69l-3.08-13.53L109.33,33.23Z" transform="translate(-0.82 -4.17)" style="fill:#d54e9c"/><path d="M128.2,43.49a3.07,3.07,0,0,1-.6-.07l-22.25-5.08a1.5,1.5,0,1,1,.67-2.92l21.81,5-5-21.81a1.5,1.5,0,1,1,2.92-.67l5.07,22.24a2.74,2.74,0,0,1-2.65,3.34Z" transform="translate(-0.82 -4.17)" style="fill:#33363a"/><path d="M121.38,35.43a1.52,1.52,0,0,1-1.07-.44,1.47,1.47,0,0,1-.43-1.06,1.51,1.51,0,0,1,.43-1.06,1.56,1.56,0,0,1,2.13,0,1.5,1.5,0,0,1-1.06,2.56Z" transform="translate(-0.82 -4.17)" style="fill:#33363a"/><path d="M118.19,32.25a1.5,1.5,0,0,1-1.5-1.5,1.5,1.5,0,0,1,.44-1.06,1.5,1.5,0,0,1,2.56,1.06,1.5,1.5,0,0,1-1.5,1.5Z" transform="translate(-0.82 -4.17)" style="fill:#33363a"/><path d="M115,29.06a1.52,1.52,0,0,1-1.06-.44,1.49,1.49,0,0,1-.43-1.06,1.51,1.51,0,0,1,.43-1.06,1.56,1.56,0,0,1,2.12,0,1.52,1.52,0,0,1,.44,1.06,1.49,1.49,0,0,1-1.5,1.5Z" transform="translate(-0.82 -4.17)" style="fill:#33363a"/><path d="M7.07,93.05a1.21,1.21,0,0,0-1.14.33,1.23,1.23,0,0,0-.32,1.14l5.07,22.24L29.32,98.12Z" transform="translate(-0.82 -4.17)" style="fill:#bfa1f1"/><path d="M12.14,98.69a.75.75,0,0,0-.9.89l3.09,13.53,11.34-11.34Z" transform="translate(-0.82 -4.17)" style="fill:#834be5"/><path d="M10.68,118.26a1.49,1.49,0,0,1-1.46-1.17L4.14,94.85a2.73,2.73,0,0,1,3.27-3.26l22.24,5.07A1.5,1.5,0,1,1,29,99.58l-21.81-5,5,21.82A1.5,1.5,0,0,1,11,118.22,1.24,1.24,0,0,1,10.68,118.26Z" transform="translate(-0.82 -4.17)" style="fill:#33363a"/><path d="M13.62,102.57a1.5,1.5,0,0,1-1.5-1.5,1.5,1.5,0,0,1,.44-1.06,1.56,1.56,0,0,1,2.13,0,1.53,1.53,0,0,1,.43,1.06,1.49,1.49,0,0,1-1.5,1.5Z" transform="translate(-0.82 -4.17)" style="fill:#33363a"/><path d="M16.81,105.75a1.52,1.52,0,0,1-1.06-.44,1.5,1.5,0,0,1-.44-1.06,1.52,1.52,0,0,1,.44-1.06,1.55,1.55,0,0,1,2.12,0,1.52,1.52,0,0,1,.44,1.06,1.5,1.5,0,0,1-.44,1.06A1.52,1.52,0,0,1,16.81,105.75Z" transform="translate(-0.82 -4.17)" style="fill:#33363a"/><path d="M20,108.94a1.5,1.5,0,0,1-1.06-.44,1.52,1.52,0,0,1-.44-1.06,1.5,1.5,0,0,1,.44-1.06,1.55,1.55,0,0,1,2.12,0,1.5,1.5,0,0,1,.44,1.06,1.5,1.5,0,0,1-1.5,1.5Z" transform="translate(-0.82 -4.17)" style="fill:#33363a"/><path d="M98.22,83.67a1,1,0,0,0,1.15-1.15l-4-17.41L80.81,79.7Z" transform="translate(-0.82 -4.17)" style="fill:#fff"/><path d="M94.26,79.26a.6.6,0,0,0,.54-.16.57.57,0,0,0,.15-.54L92.54,68l-8.87,8.87Z" transform="translate(-0.82 -4.17)" style="fill:#e4e9ed"/><path d="M98.44,85.19a2.67,2.67,0,0,1-.56-.06l-17.41-4a1.5,1.5,0,1,1,.67-2.92L97.72,82,93.94,65.44a1.5,1.5,0,1,1,2.92-.67l4,17.42a2.46,2.46,0,0,1-2.39,3Z" transform="translate(-0.82 -4.17)" style="fill:#33363a"/><path d="M90.6,76.4A1.5,1.5,0,0,1,89.54,76a1.52,1.52,0,0,1-.44-1.06,1.53,1.53,0,0,1,.43-1.06,1.56,1.56,0,0,1,2.13,0,1.5,1.5,0,0,1,.44,1.06,1.5,1.5,0,0,1-1.5,1.5Z" transform="translate(-0.82 -4.17)" style="fill:#33363a"/><path d="M85.5,71.3a1.49,1.49,0,0,1-1.06-.44L58.67,45.09A1.5,1.5,0,0,1,60.79,43L86.56,68.74A1.5,1.5,0,0,1,85.5,71.3Z" transform="translate(-0.82 -4.17)" style="fill:#33363a"/><path d="M36.78,51.33a1,1,0,0,0-1.15,1.15l4,17.41L54.19,55.3Z" transform="translate(-0.82 -4.17)" style="fill:#fff"/><path d="M40.74,55.74a.59.59,0,0,0-.7.7L42.46,67l8.87-8.87Z" transform="translate(-0.82 -4.17)" style="fill:#e4e9ed"/><path d="M39.6,71.39a1.5,1.5,0,0,1-1.46-1.16l-4-17.42a2.44,2.44,0,0,1,.66-2.29,2.48,2.48,0,0,1,2.29-.65l17.4,4a1.5,1.5,0,1,1-.66,2.92L37.28,53l3.78,16.57a1.5,1.5,0,0,1-1.13,1.8A1.84,1.84,0,0,1,39.6,71.39Z" transform="translate(-0.82 -4.17)" style="fill:#33363a"/><path d="M44.4,61.6a1.52,1.52,0,0,1-1.06-.44,1.5,1.5,0,0,1-.44-1.06A1.52,1.52,0,0,1,43.34,59a1.56,1.56,0,0,1,2.12,0A1.5,1.5,0,0,1,44.4,61.6Z" transform="translate(-0.82 -4.17)" style="fill:#33363a"/><path d="M75.27,92.47A1.47,1.47,0,0,1,74.21,92L48.44,66.26a1.49,1.49,0,0,1,0-2.12,1.51,1.51,0,0,1,2.12,0L76.33,89.91a1.49,1.49,0,0,1,0,2.12A1.47,1.47,0,0,1,75.27,92.47Z" transform="translate(-0.82 -4.17)" style="fill:#33363a"/><path d="M19.84,16.23l4.79,1.91c1,.41,2,.85,3,1.26,1.62.66,3.23,1.33,4.87,2a1.94,1.94,0,0,1,1.2,1.25c.51,1.36,1,2.71,1.66,4,1.17,2.49,2.08,5.09,3.21,7.59a1.67,1.67,0,0,1,0,1.48c-1,2.23-1.83,4.49-2.8,6.7q-1.14,2.6-2.19,5.2a1.41,1.41,0,0,1-.81.86c-1.75.68-3.49,1.39-5.22,2.1l-5.38,2.21c-.69.29-1.39.55-2.08.82a.79.79,0,0,1-.62,0L15,51.72c-1.63-.67-3.26-1.36-4.9-2-1.11-.43-2.21-.9-3.31-1.36a1.14,1.14,0,0,1-.61-.61L4,42.66c-.44-1.07-.81-2.17-1.32-3.2C2,38.05,1.49,36.57.88,35.13c0,0,0,0-.06,0v-.23A20,20,0,0,1,2,31.77c.92-2.07,1.79-4.17,2.64-6.27.42-1,.87-2,1.27-3.07a1.76,1.76,0,0,1,1-1c1.23-.52,2.47-1,3.7-1.51,2.43-1,4.84-2,7.28-3,.59-.23,1.16-.51,1.77-.69Z" transform="translate(-0.82 -4.17)" style="fill:#333"/><path d="M19.7,26.79c-.68.3-1.29.74-1.95,1.08-1.48.75-2.85,1.69-4.34,2.42a1.44,1.44,0,0,0-1,1.56,19.44,19.44,0,0,1,0,2c0,.2,0,.28-.27.28l-8.69,0c-.43,0-.43,0-.26-.41C4.15,31.45,5,29.16,6,26.92c.56-1.24,1.06-2.51,1.62-3.75a.46.46,0,0,1,.29-.27l2.78-1.1c0,.13.07.23.28.27a4.63,4.63,0,0,1,1.5.64c.73.39,1.5.67,2.22,1.07a12.72,12.72,0,0,1,1.64.95A4.43,4.43,0,0,0,17,25c.6.31,1.21.61,1.81.9a4.26,4.26,0,0,1,.49.34,1,1,0,0,0,.46.14c.1,0,.22,0,.23.14s-.11.14-.21.16S19.7,26.72,19.7,26.79Z" transform="translate(-0.82 -4.17)" style="fill:#8247e4"/><path d="M20.59,42.94,24,41c.81-.46,1.62-.93,2.44-1.36a1.22,1.22,0,0,0,.71-1.24c0-.75,0-1.49,0-2.24,0-.27.05-.37.35-.37q4.44,0,8.9,0c.25,0,.35,0,.23.31-.33.75-.58,1.54-1,2.27-.83,1.66-1.44,3.41-2.17,5.11-.41.92-.77,1.86-1.16,2.79,0,.1-.1.2-.15.3a.5.5,0,0,1-.36,0l-3.92-1.22a20,20,0,0,1-2.3-.77,2.8,2.8,0,0,0-1-.26,3.23,3.23,0,0,1-1-.31c-.6-.22-1.24-.33-1.85-.57A3,3,0,0,0,20.6,43S20.58,43,20.59,42.94Z" transform="translate(-0.82 -4.17)" style="fill:#fd1f89"/><path d="M14.24,35.05c0-1,0-1.94,0-2.92a.43.43,0,0,1,.25-.44l5.11-2.92a.38.38,0,0,1,.44,0l4.23,2.42a4,4,0,0,0,.65.34c.45.15.54.43.53.88,0,1.82,0,3.63,0,5.45a.47.47,0,0,1-.29.49c-1.29.72-2.56,1.46-3.84,2.19-.44.26-.9.48-1.34.73a.33.33,0,0,1-.38,0l-1.87-1.08c-1.08-.61-2.15-1.23-3.23-1.83a.41.41,0,0,1-.26-.43C14.25,37,14.24,36,14.24,35.05Z" transform="translate(-0.82 -4.17)" style="fill:#fefefe"/><path d="M12.43,36.13c0,.76,0,1.52,0,2.28a1.13,1.13,0,0,0,.68,1.17c1,.52,2,1.13,3,1.71a1.06,1.06,0,0,1,.33.22c.14.14.1.25-.07.17s-.66-.14-1-.28a15.46,15.46,0,0,0-2.14-.62c-.3-.09-.58-.22-.87-.32-.88-.28-1.78-.45-2.65-.73s-1.66-.6-2.52-.81c-.34-.08-.64-.27-1-.37A18.22,18.22,0,0,1,4.39,38a1.26,1.26,0,0,1-.58-.37c-.22-.52-.44-1-.67-1.57-.07-.17,0-.24.14-.23H12c.13,0,.34-.13.4.13H3.7a1.62,1.62,0,0,0,.44,0h7.78C12.1,36,12.3,35.93,12.43,36.13Z" transform="translate(-0.82 -4.17)" style="fill:#fd1f89"/><path d="M35,30.14l.75,1.65a4.33,4.33,0,0,1-1-.38c-.58-.34-1.2-.61-1.77-.95-.76-.45-1.59-.78-2.37-1.19-1.18-.6-2.34-1.27-3.55-1.81-.69-.31-1.33-.72-2-1.06s-1.45-.78-2.18-1.15l-3.36-1.68c-.48-.25-.94-.55-1.43-.8s-1.27-.51-1.84-.89a19.4,19.4,0,0,1-1.95-1.08c-.12-.1-.31-.15-.21-.37a2.53,2.53,0,0,1,.74-.31,1,1,0,0,1,.61.15c1.36.73,2.75,1.4,4.11,2.11s2.89,1.52,4.36,2.22c.78.38,1.56.77,2.32,1.19.6.33,1.2.65,1.81.95s1.37.7,2,1.06a18.06,18.06,0,0,1,1.69.88c.26.18.57.22.84.38a14.64,14.64,0,0,0,2.09,1.06A.55.55,0,0,0,35,30.14Z" transform="translate(-0.82 -4.17)" style="fill:#8d58e7"/><path d="M36.4,33.42c.33.63.33.63-.35.63l-.34,0a2.46,2.46,0,0,1-1-.38c-.52-.26-1-.56-1.54-.82-1-.47-1.95-.9-2.86-1.45a11.53,11.53,0,0,1-1.75-1l0,0A5.79,5.79,0,0,1,27,29.69a3.83,3.83,0,0,1-.67-.4,1.75,1.75,0,0,0-.54-.24c-.08,0-.17,0-.22-.05-.4-.49-1-.53-1.55-.82a30.88,30.88,0,0,0-2.91-1.52c-.84-.39-1.64-.84-2.44-1.29S16.9,24.52,16,24.05a7.56,7.56,0,0,0-1.75-.88.46.46,0,0,1-.2-.09,3.79,3.79,0,0,0-1.42-.77c-.47-.21-.86-.52-1.3-.77a5.2,5.2,0,0,1,1-.43,1,1,0,0,1,.29.11,25.62,25.62,0,0,0,2.57,1.28,4.28,4.28,0,0,1,.42.26c.85.53,1.79.91,2.68,1.38s1.54.87,2.35,1.22,1.51.8,2.29,1.16c.6.27,1.18.63,1.78.92,1,.48,1.92,1,2.9,1.47s1.81,1,2.73,1.44,1.67.86,2.52,1.27,1.49.78,2.24,1.19C35.54,33,36,33.17,36.4,33.42Z" transform="translate(-0.82 -4.17)" style="fill:#854de5"/><path d="M11.36,21.54a1.83,1.83,0,0,1,.57.26,6.87,6.87,0,0,0,1.88.88c.06,0,.14.05.15.09.06.28.3.31.51.36a1,1,0,0,1,.69.38c.12.17.34.1.5.21a8,8,0,0,0,1.82,1,29.63,29.63,0,0,1,2.69,1.38c.81.4,1.64.79,2.42,1.24s1.63.85,2.46,1.23c.22.1.48.06.57.39,0,.1.29,0,.44.1.54.43,1.25.58,1.77,1.06.13.12.31.06.46.1.42.09.7.42,1.09.58.68.27,1.28.72,1.95,1s1.58.76,2.34,1.19a10.79,10.79,0,0,1,1.63.91c.13.11.3,0,.41.14l-5.31,0H27.56c-.31,0-.42-.07-.41-.39,0-.66,0-1.32,0-2a3.27,3.27,0,0,0-.08-.7c.31-.11.31.1.3.3,0,.69,0,1.39,0,2.09,0,.47,0,.49.47.49h5.92c-2.24-1.2-4.48-2.36-6.68-3.37.19.23.19.26-.09.33a10.85,10.85,0,0,0-1.81-1.11c-1.29-.71-2.56-1.47-3.85-2.18a4.42,4.42,0,0,0-1.62-.74l-.19-.11c.14-.11.33,0,.43-.1-1-.36-1.88-1-2.86-1.41-.81-.33-1.49-.87-2.26-1.25S13,23,12.06,22.6c-.43-.21-.85-.59-1.45-.43l.1-.37A2.6,2.6,0,0,1,11.36,21.54Z" transform="translate(-0.82 -4.17)" style="fill:#8348e4"/><path d="M30.17,47.7l-1.12.45c-1.58-.42-3.12-1-4.71-1.44-1-.28-1.95-.66-2.94-1-.75-.22-1.48-.49-2.23-.7-1.33-.36-2.66-.71-4-1.17s-3-.81-4.37-1.4c-.51-.21-1.06-.27-1.57-.45-1-.34-2-.6-3-1a6.64,6.64,0,0,1-1.17-.37A2.71,2.71,0,0,1,4.8,40c0-.22.14-.17.26-.14.86.26,1.74.44,2.57.77.55.22,1.13.3,1.68.51a31.76,31.76,0,0,0,3.27,1,23.43,23.43,0,0,1,2.38.73c1.17.44,2.38.73,3.57,1.1,1.49.47,3,1,4.48,1.41.54.15,1,.41,1.6.52,1.12.2,2.13.75,3.24,1a3.28,3.28,0,0,1,.74.27c.4.2.87.09,1.27.28C30,47.53,30.14,47.53,30.17,47.7Z" transform="translate(-0.82 -4.17)" style="fill:#fe3194"/><path d="M35,30.14c-.11.07,0,.17,0,.23-.47-.23-.94-.45-1.39-.69a9.58,9.58,0,0,0-1.2-.66c-.56-.19-1-.56-1.56-.74a6.53,6.53,0,0,1-1.2-.63c-.54-.31-1.1-.55-1.65-.82-.87-.44-1.73-.9-2.59-1.35s-1.88-.92-2.79-1.44c-.75-.43-1.55-.78-2.32-1.19-1.12-.58-2.24-1.18-3.4-1.72a6.23,6.23,0,0,1-1.32-.71,5.6,5.6,0,0,0-.71-.3,2.5,2.5,0,0,1,.74-.3,1.46,1.46,0,0,0,.39-.16h0c.15-.09.15.07.22.12l.09,0c.09.21.31.23.48.32a4.69,4.69,0,0,1,.77.4,2.27,2.27,0,0,1,.25.06,6.47,6.47,0,0,1,.82.44.78.78,0,0,0,.61.24,4,4,0,0,1,.71.52,1,1,0,0,0,.59.31c.7.37,1.47.61,2.15,1a11,11,0,0,0,1.15.66,12.83,12.83,0,0,0,1.53.66.34.34,0,0,1,.17.08c.56.6,1.39.73,2.06,1.14.51.32,1.07.53,1.6.8a5.22,5.22,0,0,0,1.2.55.48.48,0,0,1,.3.15,2,2,0,0,0,.9.62.44.44,0,0,0,.31.18.35.35,0,0,1,.25.06,9.78,9.78,0,0,0,1.71.86c.29.17.58.33.87.51A3.19,3.19,0,0,1,35,30.14Z" transform="translate(-0.82 -4.17)" style="fill:#905be8"/><path d="M14.08,20.43a1.67,1.67,0,0,0,.91.71q.75.34,1.47.75a9.7,9.7,0,0,0,1.27.58,8.57,8.57,0,0,1,1.19.64c.61.37,1.25.68,1.89,1a8,8,0,0,1,1.27.64,18.74,18.74,0,0,0,1.72.9c.83.48,1.69.89,2.54,1.32l1.77.89c.6.3,1.2.63,1.79,1,1,.53,2,1,3,1.53.31.15.62.31.92.49a8.26,8.26,0,0,1,1.2.66c.18.15.5.08.67.3a2.23,2.23,0,0,1,.3.9c-.47-.26-1.09-.24-1.43-.76a.29.29,0,0,0-.19-.11,17.19,17.19,0,0,1-1.88-.92c-.72-.28-1.4-.68-2.1-1-.5-.24-1-.47-1.5-.74s-1.27-.62-1.89-1a4.59,4.59,0,0,1-.77-.37,1.94,1.94,0,0,0-1.12-.6c-.36-.54-1-.54-1.51-.84-1.15-.72-2.42-1.22-3.62-1.83s-2.14-1.11-3.23-1.64a3.38,3.38,0,0,1-.83-.41,4.1,4.1,0,0,0-1.38-.74c-.47-.19-.81-.62-1.35-.69-.09,0-.22-.09-.13-.24A5.09,5.09,0,0,1,14.08,20.43Z" transform="translate(-0.82 -4.17)" style="fill:#8952e6"/><path d="M16.4,19.46a5.49,5.49,0,0,1,1-.41,11.49,11.49,0,0,0,1.45.82c1.09.58,2.2,1.1,3.28,1.69.39.21.79.38,1.18.58,1.13.56,2.22,1.2,3.36,1.75.76.37,1.5.77,2.28,1.1a11.94,11.94,0,0,1,1.19.7c.95.53,2,.93,2.92,1.47a1.37,1.37,0,0,0,.76.27,6.31,6.31,0,0,1,.5,1.24c0,.16-.14.12-.22.08-1-.54-2-1-2.95-1.45-.67-.38-1.36-.73-2-1.12-.93-.53-1.9-1-2.86-1.44a9.2,9.2,0,0,0-1.87-.9c-.27-.06-.46-.34-.74-.47-1.07-.46-2.07-1.08-3.14-1.56A13.18,13.18,0,0,1,19,21a11.61,11.61,0,0,0-1.3-.71,2.94,2.94,0,0,1-1-.52.16.16,0,0,0-.16-.06C16.24,19.73,16.29,19.61,16.4,19.46Z" transform="translate(-0.82 -4.17)" style="fill:#9360e8"/><path d="M30.17,47.7a2.12,2.12,0,0,0-.86-.23,2.25,2.25,0,0,1-.79-.2c-1-.42-2.13-.56-3.13-1.06-.27-.14-.59-.07-.89-.18-1-.37-2-.71-3.08-1s-2.19-.67-3.28-1A16.65,16.65,0,0,1,15,43a4.2,4.2,0,0,0-.88-.22c-1.23-.41-2.47-.76-3.69-1.15-1-.33-2.09-.66-3.12-1-.7-.24-1.42-.41-2.14-.58-.11,0-.24-.27-.37,0a1.65,1.65,0,0,1-.23-.59c.19-.23.43-.16.65-.09,1,.3,2,.6,2.92.88s1.76.56,2.63.86c.57.2,1.17.33,1.74.53,1.43.48,2.88.87,4.32,1.33.69.22,1.41.41,2.1.64,1,.31,2,.54,2.92.92s1.75.57,2.62.82c1.2.35,2.38.72,3.55,1.15.35.13.73.16,1.09.26a7,7,0,0,1,1.31.53c.1.05.22.08.2.23S30.34,47.69,30.17,47.7Z" transform="translate(-0.82 -4.17)" style="fill:#fe2d92"/><path d="M5.08,40.7s.12,0,.17,0c.57.23,1.17.37,1.75.55.42.14.87.26,1.3.39s.81.23,1.2.37.77.15,1.13.31a22.07,22.07,0,0,0,2.95,1c.73.2,1.41.52,2.14.7a12.39,12.39,0,0,0,2.15.57c.11,0,.2.1.3.13.76.23,1.52.44,2.27.69,1.12.38,2.23.75,3.36,1.09,1.34.41,2.68.84,4,1.22.39.11.73.38,1.17.33.05,0,.05.1.05.16a3.9,3.9,0,0,1-1,.38c-.73-.31-1.51-.47-2.25-.77a3.26,3.26,0,0,0-1.15-.3,2.48,2.48,0,0,1-.66-.24c-.56-.19-1.13-.31-1.68-.49s-1.37-.47-2.06-.68c-1.31-.39-2.6-.85-3.93-1.18-.66-.17-1.32-.45-2-.65-1.36-.4-2.7-.88-4.06-1.26s-2.64-.84-4-1.25a4.41,4.41,0,0,0-.8-.18c-.11-.07-.14-.22-.24-.3A1.3,1.3,0,0,1,5.08,40.7Z" transform="translate(-0.82 -4.17)" style="fill:#fe3796"/><path d="M33.86,27.43c0,.07,0,.17-.14.11a4.13,4.13,0,0,1-.77-.35,10.81,10.81,0,0,0-1.56-.78,6.56,6.56,0,0,0-1.15-.59,6.61,6.61,0,0,1-1-.57c-.56-.33-1.19-.54-1.76-.86a20.79,20.79,0,0,1-2.18-1.17,5.93,5.93,0,0,0-.72-.34c-1.43-.74-2.88-1.43-4.31-2.18-.89-.46-1.78-.94-2.68-1.39-.14-.06-.14-.15-.15-.26l.76-.32a1.1,1.1,0,0,1,.51.19c.4.21.8.43,1.21.61l.07,0a10.81,10.81,0,0,0,1.79.84c.84.36,1.58.91,2.38,1.34.51.27,1.05.44,1.55.75s1.27.65,1.91,1a4,4,0,0,1,1.51.84s0,0,0,0a6.7,6.7,0,0,1,1.29.63,4.93,4.93,0,0,1,.8.39s0,0,.06.05c.72.26,1.36.69,2.08,1A4.23,4.23,0,0,1,33.86,27.43Z" transform="translate(-0.82 -4.17)" style="fill:#9765e9"/><path d="M27,30.82c.13,0,.23-.08.09-.21a3,3,0,0,0-.31-.26c.32-.18.5.11.7.2.73.33,1.45.67,2.16,1.05a13.6,13.6,0,0,1,2.16,1.16.33.33,0,0,0,.13.07c.74.22,1.33.73,2,1,0,0,0,0,.06.08s-.2,0-.29,0H27.66c-.3,0-.43-.06-.41-.39,0-.79-.05-1.59.05-2.38,0-.19-.08-.22-.22-.22Z" transform="translate(-0.82 -4.17)" style="fill:#8247e4"/><path d="M27.55,48.75a3,3,0,0,1-.75.3,2.18,2.18,0,0,1-1.18-.29c-1-.4-2-.67-3-1s-2-.57-3-.88-1.74-.57-2.62-.85c-.55-.18-1.11-.34-1.67-.51-.93-.29-1.86-.55-2.78-.87s-1.67-.54-2.52-.76a15.19,15.19,0,0,1-1.88-.59c-.32-.13-.65-.18-1-.29a3.74,3.74,0,0,1-.72-.29,1,1,0,0,0-.59-.08,7.64,7.64,0,0,1-.42-.92.15.15,0,0,1,.13,0c1.36.43,2.74.8,4.07,1.29,1.06.39,2.18.6,3.22,1,.42.17.9.2,1.34.34.62.2,1.26.39,1.87.62s1.33.32,2,.58c.93.37,1.91.56,2.85.91.53.2,1.12.26,1.64.49.84.37,1.76.51,2.61.87.58.25,1.26.3,1.87.52C27.25,48.44,27.46,48.51,27.55,48.75Z" transform="translate(-0.82 -4.17)" style="fill:#fe3e9a"/><path d="M30.62,47.49a6,6,0,0,0-2.17-.8,2.39,2.39,0,0,1-.46-.12,23.81,23.81,0,0,0-2.95-1c-.76-.24-1.53-.48-2.3-.68S21,44.29,20.09,44c-.63-.18-1.26-.36-1.88-.58-.81-.29-1.66-.46-2.48-.76A23.07,23.07,0,0,0,13.15,42a9.27,9.27,0,0,1-1.25-.44,2.57,2.57,0,0,0-.54-.16c-.56-.07-1.06-.38-1.62-.5s-1-.43-1.57-.53c-.93-.17-1.79-.55-2.7-.78a2.32,2.32,0,0,0-.9-.11,1.21,1.21,0,0,1-.24-.53.4.4,0,0,1,.42-.09c.4.08.78.24,1.17.34.89.21,1.71.63,2.6.82.7.15,1.34.46,2,.62,1.07.24,2.1.63,3.14.95s2.31.69,3.43,1.13a4.59,4.59,0,0,1,1.74.5,3.91,3.91,0,0,0,1.06.31,22.62,22.62,0,0,0,2.38.75c1,.25,1.95.6,2.92.9,1.34.41,2.68.85,4,1.26.5.15,1,.34,1.5.46a.65.65,0,0,1,.49.36C31.08,47.41,30.82,47.4,30.62,47.49Z" transform="translate(-0.82 -4.17)" style="fill:#fe298f"/><path d="M19,18.43a3.88,3.88,0,0,1,.82-.32,19,19,0,0,0,1.77.83c.8.37,1.55.83,2.33,1.24.59.3,1.21.52,1.79.85.74.43,1.52.78,2.25,1.23.22.14.47.14.69.27A24.53,24.53,0,0,0,31,23.82a5.89,5.89,0,0,1,.54.32c.38.21.81.3,1.16.54a4.68,4.68,0,0,1,.38,1c0,.18-.07.22-.22.12a15.77,15.77,0,0,0-2.5-1.25c-.25-.11-.41-.34-.68-.45-.43-.16-.82-.4-1.24-.58-.78-.33-1.46-.84-2.24-1.17s-1.44-.79-2.21-1.09a11.92,11.92,0,0,1-1.4-.76c-.87-.47-1.74-.93-2.64-1.33-.29-.13-.56-.32-.86-.45A.23.23,0,0,1,19,18.43Z" transform="translate(-0.82 -4.17)" style="fill:#9a6be9"/><path d="M27.55,48.75A5.35,5.35,0,0,0,25.39,48c-.36,0-.62-.29-1-.36a7.25,7.25,0,0,0-.91-.26A10.26,10.26,0,0,1,22.27,47,7.28,7.28,0,0,0,21,46.66a2.14,2.14,0,0,1-.78-.3c-.44-.2-.91-.23-1.35-.4a7.69,7.69,0,0,0-1.48-.46A12.55,12.55,0,0,1,15,44.75a26.53,26.53,0,0,1-3.2-1,2.72,2.72,0,0,0-.51-.13c-.95-.24-1.86-.6-2.79-.91-.7-.24-1.44-.4-2.14-.68-.4.29-.55-.24-.86-.26l0-.12c0-.08-.06-.17.08-.17a5.26,5.26,0,0,1,1.8.47c1.46.48,2.93.89,4.39,1.38.57.19,1.16.41,1.74.56s1.16.4,1.77.51a1.62,1.62,0,0,1,.79.29c.21.19.47.14.7.2,1.35.33,2.65.81,4,1.22.55.17,1.09.39,1.63.56s1.12.29,1.67.48c.9.32,1.83.5,2.72.86a5.11,5.11,0,0,1,1.35.55A1.21,1.21,0,0,1,27.55,48.75Z" transform="translate(-0.82 -4.17)" style="fill:#fe3a99"/><path d="M19,18.43a2.73,2.73,0,0,0,.92.53c.75.41,1.55.71,2.28,1.16a15,15,0,0,0,1.72.92c.71.34,1.42.7,2.12,1.06a8,8,0,0,1,1.75.94,7.34,7.34,0,0,0,.94.44,14.43,14.43,0,0,1,1.6.84,4.86,4.86,0,0,0,1.39.68,5.58,5.58,0,0,1,1.27.7s.06.08.11,0a.7.7,0,0,0,.06-.09,1.48,1.48,0,0,1,.28.7c0,.12-.09.13-.14.09s-.49-.16-.64-.3c-.5-.45-1.19-.49-1.72-.89a3.69,3.69,0,0,0-1.18-.61c-.68-.17-1.12-.69-1.76-.91s-1.28-.68-1.93-1c-.47-.2-.81-.72-1.41-.62a.18.18,0,0,1-.13-.06,9.58,9.58,0,0,0-1.9-1.16,4.22,4.22,0,0,0-1.79-.8.58.58,0,0,1-.19-.1,1.55,1.55,0,0,0-.93-.43.18.18,0,0,1-.19-.14.2.2,0,0,0-.18-.16,4.08,4.08,0,0,1-1.1-.56Z" transform="translate(-0.82 -4.17)" style="fill:#9969e8"/><path d="M36.4,33.42c-.22.12-.37-.09-.52-.16-.64-.27-1.25-.63-1.88-.93-.46-.22-.9-.5-1.39-.69a8.87,8.87,0,0,1-.86-.45c-1-.52-2.06-1-3.06-1.62A8.72,8.72,0,0,0,27.64,29c-.51-.22-1-.54-1.46-.76-.67-.29-1.3-.66-2-1s-1.34-.69-2-1-1.17-.6-1.74-.92-.91-.5-1.37-.72-1.18-.64-1.78-.92-1.16-.57-1.73-.88c-.79-.43-1.61-.82-2.41-1.21a2.59,2.59,0,0,1-.59-.38c.11-.29.32-.16.49-.1a11.23,11.23,0,0,1,1.71.83c.9.52,1.84.94,2.76,1.41a.41.41,0,0,0,.18.05,1,1,0,0,1,.58.24,7,7,0,0,0,1.21.72c.47.18.88.5,1.35.63s.92.58,1.48.66l.09,0a6.55,6.55,0,0,0,2,1.24c1.16.57,2.29,1.21,3.46,1.74a6.93,6.93,0,0,1,1.14.61,2.24,2.24,0,0,0,.63.22,7.77,7.77,0,0,1,.93.54,20.07,20.07,0,0,0,2.14,1,9.51,9.51,0,0,1,1.51.87,7,7,0,0,1,1,.58.8.8,0,0,0,.84.14A1.73,1.73,0,0,1,36.4,33.42Z" transform="translate(-0.82 -4.17)" style="fill:#8750e6"/><path d="M5.9,42.66a.37.37,0,0,1,.54-.06,11.57,11.57,0,0,0,1.46.52c.67.27,1.37.42,2,.65a6.08,6.08,0,0,0,1.41.36,5.83,5.83,0,0,1,1.15.41c.51.16,1,.33,1.55.47l1.75.52c.66.2,1.32.44,2,.64s1.49.55,2.27.74a6.83,6.83,0,0,1,1.13.38,8.85,8.85,0,0,0,1,.27c.86.25,1.71.56,2.57.8a5.75,5.75,0,0,0,1.37.43,2.27,2.27,0,0,1,.66.26l-.42.18a2.59,2.59,0,0,1-.95-.15c-.93-.31-1.88-.57-2.82-.87a15.45,15.45,0,0,1-2.09-.68c-.2-.09-.42-.07-.62-.14-1.8-.66-3.65-1.15-5.48-1.73-1.24-.4-2.49-.78-3.74-1.16C9.82,44.23,9,44,8.12,43.69c-.55-.22-1.16-.29-1.72-.5A.6.6,0,0,1,6,42.87C5.91,42.82,5.91,42.74,5.9,42.66Z" transform="translate(-0.82 -4.17)" style="fill:#fe429b"/><path d="M36.09,32.71a.47.47,0,0,1-.67.08c-.64-.46-1.36-.79-2-1.22a5.36,5.36,0,0,0-1.87-.79c-.05,0-.12,0-.13-.05-.25-.56-1-.42-1.32-.89a1.47,1.47,0,0,0-.7-.29,1.06,1.06,0,0,1-.48-.17c-.63-.6-1.52-.69-2.21-1.17-.38-.26-.86-.38-1.25-.63a16.72,16.72,0,0,1-2.21-1.18,1,1,0,0,0-.34-.14c-.2-.06-.38-.14-.44-.36,0-.06-.09-.14-.11-.13-.36.17-.6-.17-.77-.31s-.56-.2-.82-.36a19.78,19.78,0,0,1-1.83-1c-.27-.22-.75-.15-.84-.61a.12.12,0,0,0-.1,0c-.68.13-1.13-.4-1.68-.62-.89-.35-1.67-.92-2.55-1.3-.24-.11-.48-.24-.72-.36a.38.38,0,0,0-.45,0,.23.23,0,0,1-.22-.14,2.81,2.81,0,0,1,.74-.3c.12.29.42.21.64.28a.56.56,0,0,1,.29.16,2.05,2.05,0,0,0,1.1.59.69.69,0,0,1,.57.34,1.48,1.48,0,0,0,.68.43c1,.39,2,1,2.95,1.44s1.7.85,2.57,1.26,1.46.8,2.2,1.16c.37.18.82.2,1,.63a.3.3,0,0,0,.34.09.43.43,0,0,1,.56.3c.07.17.19.21.35.28.46.18.88.46,1.34.62a12.07,12.07,0,0,1,1.48.75,13.6,13.6,0,0,1,1.89,1,6.67,6.67,0,0,0,.66.31c.57.33,1.22.49,1.76.86a2.46,2.46,0,0,0,.73.35.87.87,0,0,1,.59.42c.16.32.53.21.79.34a1,1,0,0,1,.39.28A.08.08,0,0,1,36.09,32.71Z" transform="translate(-0.82 -4.17)" style="fill:#8850e6"/><path d="M6,42.87a2.15,2.15,0,0,0,1,.41c.6.2,1.23.32,1.83.55s1.34.38,2,.61a22.15,22.15,0,0,1,2.13.71,7.39,7.39,0,0,0,1.25.32c.47.1.88.36,1.36.44a6.8,6.8,0,0,1,1.33.4,20.61,20.61,0,0,1,2.55.85,1.72,1.72,0,0,0,.64.16,8.45,8.45,0,0,1,1.29.42l1.69.5c.81.25,1.62.51,2.44.71h0a1.4,1.4,0,0,0,.86.27l-.78.34a3.56,3.56,0,0,0-1.31-.4.53.53,0,0,1-.18,0c-.9-.44-1.89-.59-2.82-.94a18.86,18.86,0,0,0-2.21-.69c-.86-.2-1.69-.51-2.54-.75-1.06-.3-2.1-.69-3.16-1a4,4,0,0,0-1.33-.32c-1.54-.62-3.18-.94-4.73-1.55-.23-.1-.49-.06-.72-.17a1.5,1.5,0,0,1-.25-.15C6.08,43.4,6.05,43.12,6,42.87Z" transform="translate(-0.82 -4.17)" style="fill:#fe459e"/><path d="M7,45.27a2.65,2.65,0,0,1-.31-.76c.13-.22.31-.15.49-.07a19.18,19.18,0,0,0,2.86,1c.39.11.75.27,1.13.39,1.26.39,2.54.7,3.78,1.14s2.66.81,4,1.29a9.24,9.24,0,0,0,1.75.49,5.69,5.69,0,0,1,1.06.34c.8.28,1.61.53,2.42.77.1,0,.19.06.23.17a2.55,2.55,0,0,1-.77.35,6.47,6.47,0,0,1-1.37-.45c-1.33-.39-2.63-.85-4-1.22-.27-.08-.49-.24-.77-.3-1.38-.31-2.71-.81-4.06-1.23-.82-.26-1.63-.57-2.45-.77s-1.77-.59-2.68-.8A4.34,4.34,0,0,0,7,45.27Z" transform="translate(-0.82 -4.17)" style="fill:#fe4fa2"/><path d="M7,45.27c0-.13,0-.25.23-.18,1,.34,2,.7,3.05,1a8.38,8.38,0,0,1,1.82.58,2.77,2.77,0,0,0,.66.16c.55.14,1.07.4,1.6.51a20.19,20.19,0,0,0,2.52.74,3.07,3.07,0,0,1,1.21.42,2.78,2.78,0,0,0,.69.22c.68.15,1.3.46,2,.62s1.3.44,2,.59a4.87,4.87,0,0,1,.9.42l-.53.23c-.7-.12-1.34-.46-2-.6-.94-.2-1.82-.58-2.74-.85s-1.6-.45-2.38-.76a6.19,6.19,0,0,0-1-.3c-.91-.22-1.77-.59-2.68-.81-.57-.13-1.1-.45-1.69-.56-1.08-.2-2.07-.7-3.15-.94-.08,0-.15-.08-.23-.11A.55.55,0,0,1,7,45.27Z" transform="translate(-0.82 -4.17)" style="fill:#fe53a4"/><path d="M32.73,24.68c-.17.06-.34.11-.42-.13a.21.21,0,0,0-.11-.1,15.37,15.37,0,0,1-2.86-1.38,8.6,8.6,0,0,0-.87-.49,9.91,9.91,0,0,1-1.53-.76c-.63-.26-1.2-.64-1.82-.94s-1-.48-1.55-.75-.93-.5-1.38-.76-1-.47-1.52-.71a3.2,3.2,0,0,1-.9-.55c.06,0,.13,0,.18,0,1.44.58,2.9,1.14,4.33,1.75.64.27,1.3.49,1.93.8,0,.08,0,.13.12.16.66.28,1.3.61,2,.92s1.21.68,1.83,1l1.84,1a.52.52,0,0,0,.4.06A4.42,4.42,0,0,1,32.73,24.68Z" transform="translate(-0.82 -4.17)" style="fill:#9c6fea"/><path d="M3.81,37.64a11.76,11.76,0,0,0,1.28.51.66.66,0,0,0,.64.1c.07,0,.13,0,.21,0a22,22,0,0,0,2.28.8c.62.16,1.23.45,1.86.61a11,11,0,0,0,1.8.46,3.12,3.12,0,0,1,.79.28c.33.12.66.2,1,.32a10,10,0,0,1,1.79.54c.32.18.74.05,1,.33,0,0,0-.08,0-.12l1.42.76c0,.29-.24.24-.42.2a4.37,4.37,0,0,1-1.32-.35.56.56,0,0,0-.25,0,3.1,3.1,0,0,1-.89-.29l-.82-.22c-.25,0-.46-.18-.71-.2A4.14,4.14,0,0,0,12.34,41a21.46,21.46,0,0,0-2.62-.81c-.62-.16-1.23-.38-1.85-.56C7,39.35,6.14,39,5.24,38.8A3.66,3.66,0,0,1,4,38.16,1.62,1.62,0,0,1,3.81,37.64Z" transform="translate(-0.82 -4.17)" style="fill:#fe238c"/><path d="M7.19,45.63c.42-.06.78.2,1.17.27.74.14,1.39.54,2.14.66A5.68,5.68,0,0,1,12,47a14.44,14.44,0,0,0,1.58.49c.82.28,1.66.49,2.48.74s1.57.53,2.37.77c.62.18,1.23.41,1.86.6s1.19.34,1.79.51a10.45,10.45,0,0,1,1.1.43l-.74.31-.11-.06a21.73,21.73,0,0,0-2.82-1c-1.34-.43-2.69-.84-4-1.25-.74-.22-1.47-.49-2.21-.7-1.09-.31-2.15-.72-3.25-1-.63-.15-1.23-.4-1.84-.61a2.4,2.4,0,0,0-.44-.12.53.53,0,0,0-.28,0A1.46,1.46,0,0,1,7.19,45.63Z" transform="translate(-0.82 -4.17)" style="fill:#fe56a7"/><path d="M10.56,48.08c-.93-.28-1.79-.71-2.69-1a.35.35,0,0,1-.24-.34c0-.17.1-.21.23-.23a15.27,15.27,0,0,0,2.07.7c1.17.26,2.24.82,3.39,1.08,1,.22,1.94.6,2.92.87s2.14.69,3.22,1c.8.23,1.59.49,2.39.72a.4.4,0,0,1,.11,0c.08,0,.12.09.05.17-.23,0-.4.25-.65.25a2.6,2.6,0,0,1-1.31-.35c-.86-.3-1.73-.54-2.6-.79-.23-.07-.46-.11-.68-.2-.87-.34-1.79-.52-2.66-.84-.39-.13-.79-.22-1.17-.33a7.93,7.93,0,0,1-1-.37,1.6,1.6,0,0,0-.6-.18c-.08,0-.18,0-.21-.07C10.94,47.77,10.74,48.06,10.56,48.08Z" transform="translate(-0.82 -4.17)" style="fill:#fe5da9"/><path d="M20.59,42.94c.58-.08,1,.38,1.51.5a8.84,8.84,0,0,1,1.61.5c.75.33,1.57.38,2.34.67a20.86,20.86,0,0,0,3.12,1c.59.13,1.16.39,1.74.58l1.29.39c-.07.11,0,.27-.15.36a2.16,2.16,0,0,1-1.52-.21c-.32-.12-.64-.26-1-.36-1.43-.43-2.85-.9-4.28-1.33a21.24,21.24,0,0,0-2.64-.81,7.18,7.18,0,0,1-1.05-.35,3.4,3.4,0,0,0-.94-.23c-.08,0-.15-.09-.24-.08-.34,0-.32-.15-.19-.37A.67.67,0,0,1,20.59,42.94Z" transform="translate(-0.82 -4.17)" style="fill:#fe238c"/><path d="M10.56,48.08c.15-.41.46-.11.71-.2,0,.22-.16,0-.2.12a.06.06,0,0,0,0,.08c.53-.09.92.43,1.46.33.08,0,.13.05.15.13a.2.2,0,0,0,.19.15,10.49,10.49,0,0,1,2.53.73c1.24.33,2.45.76,3.69,1.11a10.86,10.86,0,0,1,1.68.61c.18.08.4-.11.54.12a.84.84,0,0,1-.52.22,4.68,4.68,0,0,1-2.2-.54c-.59-.23-1.23-.25-1.82-.48-.16-.06-.35-.07-.45-.24s-.18-.08-.27-.07a2.27,2.27,0,0,1-.45,0l-4.87-2A1,1,0,0,1,10.56,48.08Z" transform="translate(-0.82 -4.17)" style="fill:#fe60ab"/><path d="M24.43,50c-.71-.2-1.42-.4-2.12-.62a5.93,5.93,0,0,1-.83-.32,10.25,10.25,0,0,0-1.59-.46c-1-.26-1.91-.63-2.88-.9-.65-.18-1.29-.4-1.93-.62A6.27,6.27,0,0,0,13,46.53c-.16,0-.18-.18-.33-.22-.84-.2-1.64-.53-2.47-.75s-1.8-.64-2.73-.84c-.23,0-.35-.33-.63-.26l-.14,0c-.09-.07-.08-.18-.09-.29.27-.16.51,0,.74.1,1,.32,2.11.64,3.15,1a.45.45,0,0,0,.11,0,16.07,16.07,0,0,1,2.33.72c1,.23,2,.62,3.06.93a18.08,18.08,0,0,1,2.27.71c.59.27,1.27.34,1.88.58,1.1.43,2.27.63,3.37,1.06a6.27,6.27,0,0,0,1,.25.51.51,0,0,1,.17,0c.22.15,0,.24-.06.34Z" transform="translate(-0.82 -4.17)" style="fill:#fe4ba1"/><path d="M4,38.16a20.9,20.9,0,0,0,3.19,1.15c.81.29,1.65.56,2.49.77s1.69.48,2.54.73c0,0,.06.07.09.11.39.1.73.31,1.13.38.28-.1.48.17.75.15a.8.8,0,0,0,.82.22,2,2,0,0,0,.82.3,3.47,3.47,0,0,0,1,.37c.26.06.38.19.23.45a2.39,2.39,0,0,0-.43-.2c-.58-.17-1.15-.43-1.72-.57s-1.21-.42-1.83-.57-1.33-.46-2-.62c-.89-.22-1.73-.57-2.63-.76a7.75,7.75,0,0,1-1.59-.57,1.54,1.54,0,0,0-.51-.1c-.43,0-.75-.35-1.17-.41a4.21,4.21,0,0,0-.87-.09A2.78,2.78,0,0,1,4,38.16Z" transform="translate(-0.82 -4.17)" style="fill:#fe268e"/><path d="M20.59,43.54a5.08,5.08,0,0,1,1.88.49c.19.07.38.07.56.13.53.18,1.06.38,1.6.54,1,.29,1.93.65,2.9.92a18.72,18.72,0,0,0,2.43.7c.33,0,.54.32.87.38s.81.16,1.22.2a2.28,2.28,0,0,1-.82.31,14.42,14.42,0,0,0-2-.71c-.76-.29-1.56-.45-2.33-.72s-1.64-.54-2.46-.79c-1.18-.36-2.37-.69-3.54-1.08-.33-.12-.71-.1-1-.37A1.1,1.1,0,0,1,20.59,43.54Z" transform="translate(-0.82 -4.17)" style="fill:#fe268d"/><path d="M24.56,49.67a7.2,7.2,0,0,1-1.22-.28,20.17,20.17,0,0,0-2.41-.71,4.81,4.81,0,0,1-1.34-.49,2.79,2.79,0,0,0-.75-.21A15.25,15.25,0,0,1,17,47.37a24.24,24.24,0,0,1-3.11-.95A13,13,0,0,0,12.5,46a3.28,3.28,0,0,1-1.24-.5.2.2,0,0,0-.11,0,9.94,9.94,0,0,1-2.27-.63A11.35,11.35,0,0,0,7,44.36c-.14,0-.23-.2-.4-.14A.22.22,0,0,1,6.51,44c0-.1,0-.1.09-.12h.1l.19.07L7,44c.62.22,1.26.33,1.88.56a.9.9,0,0,1,.22.06c.09,0,.17.12.26.13.82.15,1.59.48,2.39.71a5.75,5.75,0,0,1,.67.21,8.11,8.11,0,0,0,1.74.52c.27.05.5.2.77.24.6.3,1.28.31,1.88.59a6,6,0,0,0,.83.23c1.1.39,2.22.72,3.34,1a.51.51,0,0,1,.17,0l3,1C24.31,49.37,24.55,49.39,24.56,49.67Z" transform="translate(-0.82 -4.17)" style="fill:#fe4ba1"/><path d="M32.35,23.78c0,.2-.18.14-.28.09-.66-.33-1.32-.68-2-1s-1.33-.79-2-1.11a5.61,5.61,0,0,1-1-.52,3.34,3.34,0,0,0-.77-.34c-.15-.06-.24-.12,0-.23l5.65,2.26a.37.37,0,0,1,.26.24C32.19,23.36,32.27,23.57,32.35,23.78Z" transform="translate(-0.82 -4.17)" style="fill:#9e71e9"/><path d="M21.11,48.4H21a.93.93,0,0,0-.58-.31,9.16,9.16,0,0,1-1.57-.46c-1.07-.32-2.12-.69-3.2-1-.33-.08-.62-.27-.95-.34l-.1,0c-.56-.16-1.13-.3-1.68-.49a.17.17,0,0,1-.1,0,2.4,2.4,0,0,0-.44-.12.34.34,0,0,1-.19-.09c-.05-.06-.14-.11-.11-.21a4.64,4.64,0,0,1,1.65.39c1.3.37,2.56.85,3.86,1.21S20,47.7,21.22,48c.42.11.81.33,1.22.43.91.22,1.76.63,2.69.77a.58.58,0,0,1,.47.33L25,49.8a.11.11,0,0,1,0-.14s0-.06.08-.06-.06,0-.09,0a.32.32,0,0,1-.25-.05,21.32,21.32,0,0,0-3.48-1.19A.2.2,0,0,0,21.11,48.4Z" transform="translate(-0.82 -4.17)" style="fill:#fe489f"/><path d="M15.65,50.18a.72.72,0,0,1,.42-.13c.16,0,.34-.09.45.2s.47.16.71.24c.61.21,1.25.27,1.86.53a2.34,2.34,0,0,0,1.55.37c.05,0,.13.06.2.09l-.85.38a.28.28,0,0,1-.25,0Z" transform="translate(-0.82 -4.17)" style="fill:#fc64ad"/><path d="M31.22,27.23c.51.22,1,.42,1.51.67a4.9,4.9,0,0,0,1.21.55c.16,0,.15.4.42.22a2.39,2.39,0,0,1,.32.73c-.21-.12-.13.16-.26.17,0-.27-.08-.45-.39-.47s-.51-.36-.84-.42a2.44,2.44,0,0,1-1.06-.54.53.53,0,0,0-.39-.09c-.17,0-.23-.07-.22-.22s-.22-.18-.35-.26A.24.24,0,0,1,31,27.3C31.06,27.21,31.13,27.16,31.22,27.23Z" transform="translate(-0.82 -4.17)" style="fill:#915ee6"/><path d="M20.59,43.54h-.67a3,3,0,0,1-1.42-.41,3.23,3.23,0,0,0-1.43-.34c0-.23-.05-.34-.3-.4s-.7-.08-.9-.42a.68.68,0,0,1,.46.12,7.58,7.58,0,0,0,1.33.32c.1,0,.18,0,.23-.14.41.23.84.44,1.23.7a1.24,1.24,0,0,0,1.1.19c0,.09.12.18-.06.26C20.33,43.49,20.52,43.31,20.59,43.54Z" transform="translate(-0.82 -4.17)" style="fill:#fe268d"/><path d="M12.43,36.13a.9.9,0,0,0-.51-.07H3.59a.54.54,0,0,1,.47-.15h8a.79.79,0,0,1,.4.07Z" transform="translate(-0.82 -4.17)" style="fill:#fd208c"/><path d="M7.86,46.53a.24.24,0,0,0-.23.16,1.25,1.25,0,0,1-.22-.53c0-.19.13-.12.23-.08s.28.17.32.35S7.9,46.5,7.86,46.53Z" transform="translate(-0.82 -4.17)" style="fill:#fd59a8"/><path d="M16.4,19.46c0,.06-.15.28.12.16.07,0,.17-.11.18.06s-.34.13-.53.14-.17.09-.2.07.08-.08.08-.15-.07-.06-.11-.07Z" transform="translate(-0.82 -4.17)" style="fill:#915ee6"/><path d="M6.66,43.91c-.06,0-.12,0-.15.08a.91.91,0,0,1-.16-.44c.09,0,.18,0,.24.06S6.76,43.78,6.66,43.91Z" transform="translate(-0.82 -4.17)" style="fill:#fe49a0"/><path d="M25,49.67v.13a.87.87,0,0,1-.38.17c0-.11.18-.17.08-.3A.27.27,0,0,1,25,49.67Z" transform="translate(-0.82 -4.17)" style="fill:#fe4ba1"/><path d="M22,51a.13.13,0,0,0-.07-.14c.11-.27.29-.07.45-.07v.07A.66.66,0,0,1,22,51Z" transform="translate(-0.82 -4.17)" style="fill:#fe5aa8"/><path d="M5.54,41.45c-.07,0-.08.1-.08.17a.64.64,0,0,1-.16-.39A.35.35,0,0,1,5.54,41.45Z" transform="translate(-0.82 -4.17)" style="fill:#fd3a98"/><path d="M16,19.66a.4.4,0,0,1-.39.16A.55.55,0,0,1,16,19.66Z" transform="translate(-0.82 -4.17)" style="fill:#915ee6"/><path d="M23.16,35a.83.83,0,0,1-.29.63c-.82.77-1.62,1.58-2.48,2.31a.78.78,0,0,1-1.11-.06L17.42,36c-.19-.19-.42-.34-.6-.54a.77.77,0,0,1,0-1.16c.88-.76,1.69-1.6,2.56-2.38a.7.7,0,0,1,1,0c.92.81,1.75,1.72,2.6,2.6A.7.7,0,0,1,23.16,35Z" transform="translate(-0.82 -4.17)" style="fill:#333"/><path d="M34.4,33.89l.43,0C34.62,34,34.49,34,34.4,33.89Z" transform="translate(-0.82 -4.17)" style="fill:#8247e4"/><path d="M16.17,19.82c.15-.14.38,0,.53-.14.2.31.6.27.88.47a9.06,9.06,0,0,0,1.07.57c.49.24,1,.52,1.44.77.66.33,1.35.61,2,1a10.23,10.23,0,0,0,1.94.94.47.47,0,0,1,.27.25.22.22,0,0,0,.23.15,1.67,1.67,0,0,1,.94.43,10.63,10.63,0,0,0,1.48.72c.51.24,1,.53,1.5.78.95.45,1.85,1,2.77,1.51-.08,0-.15,0-.13.13s.1.16.21.17.36,0,.22.3a1.08,1.08,0,0,1-.88-.57.22.22,0,0,0-.16-.07c-.45,0-.75-.43-1.2-.51-.27-.05-.49-.3-.77-.42a17.85,17.85,0,0,1-2.05-1c-.25-.15-.59-.08-.79-.36a2,2,0,0,0-1.12-.57,6,6,0,0,0-.72-.36,3.27,3.27,0,0,1-.94-.5,8.85,8.85,0,0,1-.83-.48c-.41-.32-1-.37-1.42-.66-.08-.05-.16-.07-.2-.16a.31.31,0,0,1,.24-.09,4,4,0,0,1-.55-.29c-.12-.06-.23-.09-.29.08a4.81,4.81,0,0,1-.67-.52.71.71,0,0,0-.6-.22,3.11,3.11,0,0,1-.82-.45s.09,0,.07-.1a.13.13,0,0,0-.15-.07c-.11,0-.16.11-.22.17a3.39,3.39,0,0,0-.75-.45c.05-.08.09-.17-.05-.19a2.53,2.53,0,0,1-.48-.19Z" transform="translate(-0.82 -4.17)" style="fill:#915ee7"/><path d="M19.84,21.84c-.06-.18,0-.31.19-.21s.5.26.75.39c-.09.17-.23.11-.34.12A.53.53,0,0,1,19.84,21.84Z" transform="translate(-0.82 -4.17)" style="fill:#915ee6"/><path d="M16.17,19.82c.19,0,.38.06.57.11s.22.05.2.17-.15.09-.24.1-.07-.05-.1-.05A.36.36,0,0,1,16.17,19.82Z" transform="translate(-0.82 -4.17)" style="fill:#915ee6"/><path d="M18.57,21.1c.27-.13.52-.18.6.22C18.92,21.37,18.7,21.36,18.57,21.1Z" transform="translate(-0.82 -4.17)" style="fill:#915ee6"/><path d="M17.45,20.65c0-.15,0-.28.2-.3s.28.16.4.28c-.13.12-.21,0-.3,0Z" transform="translate(-0.82 -4.17)" style="fill:#915ee6"/><path d="M6.66,43.91l-.07-.3c1.28.26,2.48.8,3.73,1.16a8,8,0,0,1,1.73.57l.15.15c-.25.15-.47,0-.7-.07-.51-.15-1-.38-1.52-.5a2.69,2.69,0,0,1-.92-.26H8.83a6.54,6.54,0,0,0-1.78-.59A1.19,1.19,0,0,1,6.89,44C6.83,43.9,6.74,44,6.66,43.91Z" transform="translate(-0.82 -4.17)" style="fill:#fe49a0"/><path d="M13.48,41.3a.31.31,0,0,1-.31,0l-.82-.41A1.92,1.92,0,0,1,13.48,41.3Z" transform="translate(-0.82 -4.17)" style="fill:#fe268d"/><path d="M15.05,41.67a.55.55,0,0,1-.82-.22A2.84,2.84,0,0,0,15.05,41.67Z" transform="translate(-0.82 -4.17)" style="fill:#fe268d"/><path d="M22.39,50.8c-.13.16-.33-.11-.45.07-.38-.09-.72-.26-1.1-.35-.83-.19-1.62-.49-2.43-.74s-1.54-.44-2.3-.72-1.47-.4-2.19-.71a7.55,7.55,0,0,0-1.18-.3c-.42-.12-.83-.28-1.23-.43-.91-.36-1.89-.52-2.81-.87a4.11,4.11,0,0,1-.76-.29c-.07-.15-.34-.14-.3-.38a4.86,4.86,0,0,1,1.12.35c1,.36,2.07.59,3.08.94.55.19,1.11.36,1.66.53s1.27.43,1.91.62,1.51.46,2.27.67c1.13.32,2.23.73,3.37,1A3.6,3.6,0,0,1,22.39,50.8Z" transform="translate(-0.82 -4.17)" style="fill:#fe59a8"/><path d="M7.94,46.46a5.17,5.17,0,0,1,1.28.35c.86.29,1.76.43,2.58.8s1.56.41,2.29.73,1.49.36,2.19.67a17.34,17.34,0,0,0,2.12.66,26.53,26.53,0,0,0,2.8.83,1.91,1.91,0,0,1,.74.37c-.18.24-.36,0-.49,0a4,4,0,0,0-1-.26,6.41,6.41,0,0,1-.89-.33,7.16,7.16,0,0,1-1.41-.43,9.53,9.53,0,0,0-1.34-.43c-.41-.13-.81-.27-1.23-.37a16.42,16.42,0,0,0-2.18-.62A8.91,8.91,0,0,1,12.26,48a21.3,21.3,0,0,0-2.09-.69,4.14,4.14,0,0,1-1.33-.43c-.3-.16-.7-.12-1-.37Z" transform="translate(-0.82 -4.17)" style="fill:#fe5aa8"/><path d="M25,49.67h-.45a.53.53,0,0,0-.39-.25c-.71-.15-1.35-.49-2-.66a4.58,4.58,0,0,1-1-.36c.07-.18.22-.1.32-.06.79.27,1.61.45,2.39.75a3.21,3.21,0,0,1,1,.44c.16.13.34-.1.5,0Z" transform="translate(-0.82 -4.17)" style="fill:#fe49a0"/><path d="M14.6,46.23c.24,0,.42.15.63.2,1,.23,1.94.65,2.94.86.36.08.69.27,1,.37s.89.28,1.35.38c.17,0,.41.08.4.36a12.52,12.52,0,0,0-1.55-.47c-.77-.21-1.5-.5-2.26-.72a11.23,11.23,0,0,1-2-.64.78.78,0,0,0-.22,0C14.8,46.44,14.6,46.43,14.6,46.23Z" transform="translate(-0.82 -4.17)" style="fill:#fe49a0"/><path d="M14.6,46.23c.09.11.25.16.3.3-.76-.29-1.56-.4-2.33-.67a21.14,21.14,0,0,0-3.11-1,.51.51,0,0,1-.4-.23,11.83,11.83,0,0,1,2.39.68,1.77,1.77,0,0,0,.75.15.16.16,0,0,0,.15.07,2.64,2.64,0,0,0,.45.15A14.21,14.21,0,0,0,14.6,46.23Z" transform="translate(-0.82 -4.17)" style="fill:#fe49a0"/><path d="M6.89,44c.66.2,1.4.16,1.94.67-.61-.23-1.25-.37-1.87-.55C6.92,44.1,6.91,44,6.89,44Z" transform="translate(-0.82 -4.17)" style="fill:#fe49a0"/><path d="M6.66,43.91c.1,0,.21-.12.23.08C6.81,44,6.72,44,6.66,43.91Z" transform="translate(-0.82 -4.17)" style="fill:#fe49a0"/><path d="M14.6,46.23a4.4,4.4,0,0,1-1.8-.52A10.94,10.94,0,0,1,14.6,46.23Z" transform="translate(-0.82 -4.17)" style="fill:#fe49a0"/><path d="M12.8,45.71a.49.49,0,0,1-.45-.15A.72.72,0,0,1,12.8,45.71Z" transform="translate(-0.82 -4.17)" style="fill:#fe49a0"/><path d="M19.88,36.35l-.13-.12c-.38-.39-.75-.79-1.14-1.18-.13-.13-.15-.21,0-.35.38-.34.73-.7,1.09-1.06a.15.15,0,0,1,.25,0,12.79,12.79,0,0,0,1.29,1.26c.09.08.1.14,0,.23A13.4,13.4,0,0,0,20,36.27.44.44,0,0,1,19.88,36.35Z" transform="translate(-0.82 -4.17)" style="fill:#fefefe"/><path d="M116.21,114c-1.59-.64-3.19-1.26-4.78-1.91-1-.41-2-.85-3-1.26-1.62-.66-3.24-1.33-4.87-2a1.94,1.94,0,0,1-1.2-1.25c-.51-1.36-1-2.72-1.66-4-1.18-2.49-2.09-5.09-3.22-7.59a1.71,1.71,0,0,1,0-1.48c1-2.23,1.84-4.48,2.81-6.7q1.14-2.58,2.19-5.2a1.37,1.37,0,0,1,.81-.85c1.75-.69,3.48-1.4,5.22-2.11l5.37-2.21,2.09-.82a.76.76,0,0,1,.61,0l4.56,1.86c1.63.66,3.26,1.35,4.9,2,1.11.44,2.21.9,3.3,1.36a1.11,1.11,0,0,1,.61.61c.71,1.7,1.4,3.4,2.1,5.1.44,1.06.82,2.16,1.33,3.19.69,1.42,1.23,2.89,1.84,4.33,0,0,0,0,0,.05v.22A19.07,19.07,0,0,1,134,98.5c-.93,2.07-1.8,4.16-2.65,6.26-.42,1-.86,2-1.26,3.08a1.74,1.74,0,0,1-1,1c-1.23.52-2.47,1-3.71,1.51-2.42,1-4.84,2-7.27,3a18.2,18.2,0,0,1-1.78.69Z" transform="translate(-0.82 -4.17)" style="fill:#333"/><path d="M116.35,103.48c.69-.3,1.3-.75,2-1.09,1.47-.75,2.84-1.69,4.33-2.41a1.47,1.47,0,0,0,1-1.57c-.07-.67,0-1.35,0-2,0-.2,0-.28.28-.28l8.68,0c.44,0,.44,0,.27.41-.93,2.27-1.81,4.56-2.81,6.8-.56,1.25-1.06,2.51-1.62,3.76a.47.47,0,0,1-.28.27l-2.78,1.1c0-.14-.08-.24-.29-.28a4.94,4.94,0,0,1-1.5-.63c-.72-.4-1.49-.68-2.22-1.07a14.73,14.73,0,0,1-1.63-.95,3.76,3.76,0,0,0-.68-.31c-.6-.31-1.2-.6-1.81-.89a4.21,4.21,0,0,1-.48-.35,1,1,0,0,0-.47-.13c-.09,0-.22,0-.23-.15s.11-.14.21-.15S116.35,103.54,116.35,103.48Z" transform="translate(-0.82 -4.17)" style="fill:#8247e4"/><path d="M115.47,87.32c-1.14.66-2.28,1.32-3.43,2-.81.47-1.61.93-2.44,1.36a1.23,1.23,0,0,0-.71,1.24c0,.75,0,1.5,0,2.25,0,.26,0,.37-.35.37-3,0-5.94,0-8.91,0-.25,0-.34,0-.22-.31.33-.75.58-1.54.95-2.27.83-1.66,1.43-3.41,2.17-5.1.4-.93.77-1.87,1.15-2.8l.16-.29a.5.5,0,0,1,.36,0c1.3.4,2.6.83,3.91,1.23a18.76,18.76,0,0,1,2.3.76,2.9,2.9,0,0,0,1,.26,3.17,3.17,0,0,1,1,.31c.61.22,1.25.33,1.85.57a3.08,3.08,0,0,0,1.14.42S115.47,87.3,115.47,87.32Z" transform="translate(-0.82 -4.17)" style="fill:#fd1f89"/><path d="M121.81,95.21c0,1,0,2,0,2.92a.47.47,0,0,1-.25.45q-2.56,1.44-5.11,2.91a.37.37,0,0,1-.44,0l-4.23-2.42a3.76,3.76,0,0,0-.66-.34c-.44-.15-.53-.44-.53-.88,0-1.82,0-3.64,0-5.46a.48.48,0,0,1,.28-.49c1.29-.71,2.57-1.46,3.85-2.19.44-.25.9-.48,1.34-.73a.32.32,0,0,1,.37,0c.62.37,1.25.72,1.87,1.08l3.24,1.83a.44.44,0,0,1,.26.44C121.81,93.29,121.81,94.25,121.81,95.21Z" transform="translate(-0.82 -4.17)" style="fill:#fefefe"/><path d="M123.63,94.13c0-.76,0-1.52,0-2.28a1.15,1.15,0,0,0-.68-1.17c-1-.51-2-1.13-3-1.7a1.13,1.13,0,0,1-.34-.23c-.14-.13-.1-.24.08-.16s.65.14,1,.28a15.83,15.83,0,0,0,2.14.61c.3.09.58.22.88.32.87.28,1.77.46,2.65.74s1.66.59,2.52.8c.34.08.63.27,1,.37a17.75,17.75,0,0,1,1.89.55,1.14,1.14,0,0,1,.57.36l.68,1.58c.07.16,0,.23-.15.22H124c-.13,0-.34.13-.39-.13h8.73a1.62,1.62,0,0,0-.44,0h-7.78C124,94.28,123.75,94.33,123.63,94.13Z" transform="translate(-0.82 -4.17)" style="fill:#fd1f89"/><path d="M101.08,100.12l-.75-1.65a4.26,4.26,0,0,1,1,.39c.57.34,1.19.61,1.77,1,.76.45,1.58.78,2.36,1.18,1.19.61,2.34,1.27,3.56,1.81.69.31,1.33.73,2,1.06s1.45.78,2.18,1.15l3.35,1.69c.49.24.95.54,1.43.79s1.27.51,1.85.89a20.56,20.56,0,0,1,2,1.08c.11.1.31.16.21.37a2.59,2.59,0,0,1-.75.31,1.08,1.08,0,0,1-.61-.14c-1.35-.74-2.74-1.4-4.11-2.11s-2.88-1.52-4.35-2.23c-.78-.37-1.56-.77-2.32-1.19-.6-.33-1.21-.64-1.81-1s-1.38-.7-2.06-1.06a16.73,16.73,0,0,1-1.68-.88,8.08,8.08,0,0,0-.85-.37,13.27,13.27,0,0,0-2.09-1.07A.63.63,0,0,0,101.08,100.12Z" transform="translate(-0.82 -4.17)" style="fill:#8d58e7"/><path d="M99.65,96.84c-.32-.62-.32-.63.36-.62h.33a2.37,2.37,0,0,1,1,.39c.53.26,1,.56,1.55.81,1,.47,1.94.91,2.86,1.46a10.67,10.67,0,0,1,1.75,1s0,0,0,0a5.9,5.9,0,0,1,1.51.69,3.21,3.21,0,0,1,.67.4,1.59,1.59,0,0,0,.55.24c.07,0,.17,0,.21.06.41.48,1,.52,1.55.82.95.55,1.92,1.06,2.91,1.52s1.64.83,2.44,1.28,1.79.85,2.66,1.33a7.59,7.59,0,0,0,1.76.87.38.38,0,0,1,.2.1,3.91,3.91,0,0,0,1.42.76,13.8,13.8,0,0,1,1.29.78,4.34,4.34,0,0,1-1,.42,1,1,0,0,1-.3-.11,23.66,23.66,0,0,0-2.57-1.28,3.54,3.54,0,0,1-.41-.26c-.86-.53-1.79-.91-2.68-1.38s-1.54-.86-2.35-1.22-1.51-.8-2.29-1.15c-.6-.28-1.19-.63-1.79-.93-1-.48-1.92-1-2.89-1.47s-1.82-1-2.73-1.44-1.68-.85-2.52-1.26-1.5-.79-2.24-1.19C100.51,97.23,100.06,97.1,99.65,96.84Z" transform="translate(-0.82 -4.17)" style="fill:#854de5"/><path d="M124.69,108.73a1.93,1.93,0,0,1-.56-.27,6.77,6.77,0,0,0-1.89-.87s-.14-.06-.14-.1c-.07-.28-.31-.3-.52-.35a1,1,0,0,1-.68-.38c-.12-.18-.34-.11-.5-.22a9.08,9.08,0,0,0-1.82-1,27.22,27.22,0,0,1-2.69-1.38c-.82-.39-1.64-.78-2.43-1.24s-1.63-.84-2.46-1.22c-.22-.1-.47-.07-.56-.39,0-.11-.3,0-.44-.11-.55-.43-1.26-.58-1.77-1-.13-.13-.31-.07-.47-.1-.41-.1-.69-.43-1.08-.59-.68-.27-1.29-.71-2-1s-1.57-.76-2.33-1.19a10.52,10.52,0,0,1-1.64-.91c-.12-.11-.3,0-.41-.14h5.32c.94,0,1.89,0,2.84,0,.3,0,.42.07.4.39,0,.66,0,1.32,0,2a4.06,4.06,0,0,0,.09.7c-.31.11-.31-.1-.3-.29,0-.7,0-1.4,0-2.09,0-.48,0-.5-.48-.5h-5.91c2.24,1.2,4.47,2.36,6.68,3.37-.2-.23-.19-.26.08-.33a11.27,11.27,0,0,0,1.81,1.11c1.3.71,2.57,1.48,3.86,2.19a4.63,4.63,0,0,0,1.61.74l.2.1c-.15.11-.34,0-.44.1,1,.36,1.88,1,2.87,1.41.8.33,1.48.87,2.26,1.25s1.84.88,2.75,1.32c.44.22.85.6,1.45.43l-.09.38A2.52,2.52,0,0,1,124.69,108.73Z" transform="translate(-0.82 -4.17)" style="fill:#8348e4"/><path d="M105.89,82.56l1.11-.45c1.59.43,3.13,1,4.71,1.45,1,.28,2,.65,2.94,1,.75.22,1.49.5,2.24.7,1.33.36,2.66.72,4,1.17,1.45.51,3,.82,4.37,1.4.51.21,1.06.27,1.58.45,1,.34,2,.61,3,1a8.35,8.35,0,0,1,1.17.37,2.94,2.94,0,0,1,.28.69c0,.21-.14.17-.26.13a26.29,26.29,0,0,1-2.58-.77c-.54-.21-1.12-.3-1.67-.51a33.66,33.66,0,0,0-3.28-1,24.29,24.29,0,0,1-2.38-.74c-1.17-.43-2.38-.73-3.56-1.1-1.5-.47-3-1-4.48-1.41-.54-.15-1-.41-1.6-.51-1.12-.21-2.14-.75-3.25-1a3,3,0,0,1-.73-.27c-.41-.2-.87-.09-1.27-.28C106.08,82.73,105.92,82.74,105.89,82.56Z" transform="translate(-0.82 -4.17)" style="fill:#fe3194"/><path d="M101.08,100.12c.1-.07,0-.16,0-.23.46.23.93.45,1.39.7a7.41,7.41,0,0,0,1.2.65c.56.19,1,.56,1.56.75a6.49,6.49,0,0,1,1.2.62c.54.31,1.1.55,1.65.83.87.43,1.73.89,2.59,1.34s1.88.92,2.78,1.44,1.55.79,2.32,1.19c1.13.59,2.25,1.19,3.41,1.72a6.49,6.49,0,0,1,1.32.71,4.76,4.76,0,0,0,.7.3,2.34,2.34,0,0,1-.73.3,1.68,1.68,0,0,0-.39.16h0c-.15.09-.16-.07-.23-.13a.13.13,0,0,1-.08,0c-.1-.21-.31-.22-.49-.31a5.57,5.57,0,0,1-.76-.41,1,1,0,0,1-.25-.06,8,8,0,0,1-.82-.43.79.79,0,0,0-.61-.25,3.39,3.39,0,0,1-.72-.52.89.89,0,0,0-.59-.3c-.7-.38-1.46-.62-2.14-1a10.2,10.2,0,0,0-1.16-.66,11.57,11.57,0,0,0-1.53-.66.44.44,0,0,1-.17-.07c-.56-.61-1.39-.74-2-1.15-.51-.31-1.07-.53-1.6-.79a4.76,4.76,0,0,0-1.21-.56.48.48,0,0,1-.3-.15,1.86,1.86,0,0,0-.9-.61.35.35,0,0,0-.31-.18.45.45,0,0,1-.25-.07,8.8,8.8,0,0,0-1.71-.85l-.86-.52A2.81,2.81,0,0,1,101.08,100.12Z" transform="translate(-0.82 -4.17)" style="fill:#905be8"/><path d="M122,109.83a1.76,1.76,0,0,0-.91-.71c-.5-.23-1-.48-1.47-.74a8.55,8.55,0,0,0-1.27-.58,8.2,8.2,0,0,1-1.2-.65c-.61-.36-1.24-.68-1.88-1a8,8,0,0,1-1.27-.65c-.54-.38-1.16-.57-1.73-.9-.82-.48-1.68-.89-2.53-1.32l-1.77-.89c-.61-.3-1.2-.63-1.8-1-1-.54-2-1-3-1.53-.31-.16-.62-.32-.91-.5a9.27,9.27,0,0,1-1.2-.65c-.18-.16-.5-.09-.67-.31a2.26,2.26,0,0,1-.31-.89c.48.25,1.1.23,1.44.75a.35.35,0,0,0,.19.12,15.35,15.35,0,0,1,1.87.91c.73.28,1.41.68,2.11,1,.5.25,1,.47,1.5.74s1.27.63,1.89,1a3.84,3.84,0,0,1,.76.37,2,2,0,0,0,1.13.59c.36.54,1,.54,1.51.85,1.15.71,2.41,1.21,3.62,1.83s2.14,1.1,3.22,1.63a3.67,3.67,0,0,1,.84.42,4.49,4.49,0,0,0,1.38.74c.46.19.81.62,1.35.68a.16.16,0,0,1,.12.25A4.74,4.74,0,0,1,122,109.83Z" transform="translate(-0.82 -4.17)" style="fill:#8952e6"/><path d="M119.66,110.8a6.28,6.28,0,0,1-1,.42,10,10,0,0,0-1.46-.83c-1.09-.57-2.2-1.1-3.28-1.69-.38-.21-.78-.38-1.17-.57-1.13-.57-2.23-1.21-3.37-1.76-.76-.37-1.5-.77-2.28-1.1a12.93,12.93,0,0,1-1.18-.69c-1-.54-2-.94-2.93-1.48a1.42,1.42,0,0,0-.75-.27,5.85,5.85,0,0,1-.5-1.24c0-.15.14-.12.22-.08,1,.55,2,1,2.94,1.45.67.39,1.36.73,2,1.12a30.59,30.59,0,0,0,2.86,1.44,8.72,8.72,0,0,0,1.87.9c.26.06.46.35.74.47,1.07.47,2.06,1.08,3.13,1.56a13.39,13.39,0,0,1,1.59.83,13.42,13.42,0,0,0,1.3.7,2.8,2.8,0,0,1,1,.53.17.17,0,0,0,.15.06C119.82,110.53,119.77,110.65,119.66,110.8Z" transform="translate(-0.82 -4.17)" style="fill:#9360e8"/><path d="M105.89,82.56a2.25,2.25,0,0,0,.86.24,2.13,2.13,0,0,1,.78.19c1,.42,2.14.57,3.13,1.06.27.14.59.07.9.19,1,.37,2,.7,3.08,1s2.19.67,3.27,1a17.54,17.54,0,0,1,3.15,1,5.39,5.39,0,0,0,.88.22c1.22.41,2.46.76,3.69,1.15,1,.33,2.09.65,3.12,1,.7.25,1.42.41,2.14.59.11,0,.24.26.37,0a1.52,1.52,0,0,1,.23.59c-.19.22-.43.16-.66.09-1-.31-1.94-.61-2.92-.89s-1.75-.56-2.62-.86c-.57-.19-1.17-.33-1.75-.52-1.42-.48-2.88-.88-4.31-1.34-.7-.22-1.41-.41-2.11-.64-1-.31-2-.54-2.91-.91s-1.75-.57-2.63-.83c-1.19-.35-2.38-.72-3.54-1.15-.35-.13-.73-.16-1.09-.26a6.84,6.84,0,0,1-1.32-.52c-.09-.06-.21-.09-.19-.24S105.71,82.58,105.89,82.56Z" transform="translate(-0.82 -4.17)" style="fill:#fe2d92"/><path d="M131,89.56c-.06,0-.13,0-.18,0-.56-.23-1.17-.37-1.75-.56l-1.3-.38c-.39-.12-.8-.23-1.19-.38s-.77-.15-1.14-.31a23.47,23.47,0,0,0-2.94-1c-.73-.2-1.41-.52-2.14-.7a13.18,13.18,0,0,0-2.16-.56c-.1,0-.19-.1-.3-.13-.75-.24-1.52-.45-2.27-.7-1.11-.37-2.23-.75-3.35-1.09-1.35-.41-2.68-.84-4-1.22-.38-.11-.72-.38-1.16-.33-.06,0,0-.1-.06-.16a4.33,4.33,0,0,1,1-.38c.74.31,1.52.47,2.25.77a3.39,3.39,0,0,0,1.15.31,2.14,2.14,0,0,1,.67.24c.55.19,1.13.3,1.68.49s1.37.46,2.06.67c1.31.4,2.6.86,3.93,1.19.66.16,1.31.45,2,.64,1.36.41,2.69.89,4.06,1.27s2.63.83,4,1.25a5.71,5.71,0,0,0,.8.17c.12.07.14.22.25.31A1.34,1.34,0,0,1,131,89.56Z" transform="translate(-0.82 -4.17)" style="fill:#fe3796"/><path d="M102.2,102.83c0-.07,0-.17.13-.1s.55.15.78.35a10.65,10.65,0,0,0,1.55.77,6.93,6.93,0,0,0,1.15.59,6.49,6.49,0,0,1,1,.57c.57.34,1.2.54,1.76.87a20.85,20.85,0,0,1,2.19,1.16,4.32,4.32,0,0,0,.72.34c1.42.75,2.88,1.43,4.31,2.18.89.47,1.77,1,2.68,1.39a.28.28,0,0,1,.15.27l-.77.32a1.37,1.37,0,0,1-.51-.19,12.51,12.51,0,0,0-1.21-.62.1.1,0,0,1-.07,0,10.66,10.66,0,0,0-1.78-.83c-.85-.36-1.58-.92-2.39-1.35-.5-.27-1-.44-1.55-.75s-1.27-.65-1.91-1a4,4,0,0,1-1.51-.84s0,0,0,0a6.87,6.87,0,0,1-1.28-.62,6,6,0,0,1-.8-.4l-.06,0c-.72-.27-1.37-.69-2.09-1A4.42,4.42,0,0,1,102.2,102.83Z" transform="translate(-0.82 -4.17)" style="fill:#9765e9"/><path d="M109.07,99.44c-.13,0-.23.08-.09.22l.31.26c-.31.17-.49-.12-.69-.21-.73-.32-1.46-.67-2.16-1a13.93,13.93,0,0,1-2.16-1.15.46.46,0,0,0-.13-.08c-.74-.21-1.34-.73-2.05-1,0,0,0-.06-.06-.09s.2,0,.3,0h6.06c.29,0,.42.06.41.39,0,.79,0,1.59,0,2.39,0,.18.07.21.22.21Z" transform="translate(-0.82 -4.17)" style="fill:#8247e4"/><path d="M108.51,81.51a2.87,2.87,0,0,1,.75-.3,2.3,2.3,0,0,1,1.18.29c1,.4,2,.67,3,1s2,.57,3,.88l2.63.86,1.66.5c.93.29,1.87.55,2.78.87s1.67.54,2.53.77a14.06,14.06,0,0,1,1.88.58c.31.14.65.19,1,.3a2.72,2.72,0,0,1,.73.29,1.05,1.05,0,0,0,.58.07,7.7,7.7,0,0,1,.43.92.14.14,0,0,1-.14,0c-1.35-.42-2.73-.79-4.06-1.28-1.06-.39-2.18-.6-3.23-1a13.62,13.62,0,0,0-1.33-.35c-.63-.2-1.27-.38-1.87-.62s-1.33-.32-2-.57c-.92-.38-1.9-.57-2.84-.92-.53-.2-1.12-.26-1.64-.49-.85-.37-1.76-.5-2.62-.87-.57-.25-1.25-.3-1.86-.52C108.81,81.82,108.59,81.76,108.51,81.51Z" transform="translate(-0.82 -4.17)" style="fill:#fe3e9a"/><path d="M105.44,82.77a5.82,5.82,0,0,0,2.16.8,1.93,1.93,0,0,1,.47.13,27.66,27.66,0,0,0,3,1c.76.23,1.53.48,2.3.68s1.76.6,2.65.85c.63.17,1.26.35,1.87.57.82.29,1.67.47,2.49.76a22.51,22.51,0,0,0,2.58.76,8.4,8.4,0,0,1,1.25.43,1.63,1.63,0,0,0,.53.16c.57.08,1.07.38,1.62.51s1,.43,1.57.52c.94.17,1.8.55,2.71.78a2.54,2.54,0,0,0,.9.12,1.11,1.11,0,0,1,.23.52.39.39,0,0,1-.41.09c-.41-.08-.79-.24-1.18-.33-.89-.22-1.7-.64-2.59-.83-.7-.14-1.34-.46-2-.61-1.07-.24-2.09-.63-3.13-1s-2.31-.69-3.44-1.14a4.36,4.36,0,0,1-1.73-.49,4.46,4.46,0,0,0-1.06-.32,22.55,22.55,0,0,0-2.38-.74c-1-.26-2-.61-2.92-.91-1.35-.41-2.68-.85-4-1.25-.5-.16-1-.34-1.5-.46a.65.65,0,0,1-.49-.36C105,82.85,105.23,82.86,105.44,82.77Z" transform="translate(-0.82 -4.17)" style="fill:#fe298f"/><path d="M117.11,111.84a4.81,4.81,0,0,1-.82.32c-.57-.33-1.18-.57-1.77-.84-.8-.37-1.56-.83-2.34-1.23-.58-.31-1.21-.52-1.78-.85-.74-.43-1.52-.79-2.25-1.24-.22-.14-.47-.14-.69-.27a24.53,24.53,0,0,0-2.43-1.29c-.19-.08-.36-.22-.55-.32a12,12,0,0,1-1.15-.54,4.1,4.1,0,0,1-.38-1c0-.19.07-.23.22-.12a16.16,16.16,0,0,0,2.5,1.24c.25.11.41.35.68.45.42.16.81.4,1.24.58.78.33,1.46.85,2.23,1.18s1.45.78,2.22,1.08a13.59,13.59,0,0,1,1.4.76c.86.47,1.73.93,2.63,1.33.3.13.56.33.86.45A.23.23,0,0,1,117.11,111.84Z" transform="translate(-0.82 -4.17)" style="fill:#9a6be9"/><path d="M108.51,81.51a5.2,5.2,0,0,0,2.16.71c.36,0,.61.29,1,.37a9.46,9.46,0,0,0,.91.26c.45,0,.81.34,1.25.43a6.35,6.35,0,0,0,1.23.32,2.31,2.31,0,0,1,.79.3c.44.2.91.23,1.35.4a7.15,7.15,0,0,0,1.47.46,13.15,13.15,0,0,1,2.45.75,27.16,27.16,0,0,1,3.2,1,2.15,2.15,0,0,0,.5.12c1,.24,1.86.6,2.79.92.71.24,1.45.4,2.14.67.4-.28.56.24.87.26l0,.12c0,.09.06.17-.08.18a5.17,5.17,0,0,1-1.81-.48c-1.45-.48-2.93-.89-4.38-1.37-.58-.2-1.16-.42-1.74-.57s-1.16-.4-1.77-.51a1.53,1.53,0,0,1-.8-.29c-.21-.19-.46-.14-.7-.19-1.34-.34-2.64-.82-4-1.23-.55-.17-1.09-.39-1.64-.55s-1.12-.3-1.67-.49c-.89-.31-1.83-.5-2.72-.85a5.28,5.28,0,0,1-1.35-.56A1.3,1.3,0,0,1,108.51,81.51Z" transform="translate(-0.82 -4.17)" style="fill:#fe3a99"/><path d="M117.11,111.84a2.86,2.86,0,0,0-.92-.54c-.75-.4-1.55-.7-2.28-1.16a15,15,0,0,0-1.72-.92c-.72-.34-1.42-.7-2.13-1a8.94,8.94,0,0,1-1.75-.94,6.09,6.09,0,0,0-.93-.44,15.38,15.38,0,0,1-1.6-.85,5.2,5.2,0,0,0-1.4-.68,5.8,5.8,0,0,1-1.27-.7s0-.07-.1,0a.33.33,0,0,0-.06.1,1.54,1.54,0,0,1-.29-.7c0-.12.1-.14.14-.1.19.17.5.17.64.3.51.45,1.2.5,1.73.89a3.79,3.79,0,0,0,1.17.62c.68.16,1.13.68,1.77.91s1.28.68,1.93,1c.47.2.81.72,1.4.62a.17.17,0,0,1,.14.05,9,9,0,0,0,1.9,1.16,4.25,4.25,0,0,0,1.78.81.35.35,0,0,1,.2.1,1.51,1.51,0,0,0,.92.42.19.19,0,0,1,.2.15.2.2,0,0,0,.18.16,3.63,3.63,0,0,1,1.09.56Z" transform="translate(-0.82 -4.17)" style="fill:#9969e8"/><path d="M99.65,96.84c.23-.12.37.1.53.16.64.28,1.24.63,1.87.93.47.23.9.51,1.39.7.29.11.57.3.86.44,1,.52,2.07,1,3.06,1.62a11.81,11.81,0,0,0,1,.55c.52.21,1,.53,1.47.75.67.3,1.3.67,2,1s1.33.69,2,1,1.17.6,1.74.92.9.5,1.36.72c.61.3,1.19.64,1.79.93s1.16.56,1.73.88c.78.43,1.6.81,2.41,1.2a2.87,2.87,0,0,1,.59.39c-.12.28-.33.16-.49.09a10.79,10.79,0,0,1-1.71-.83c-.9-.52-1.84-.94-2.77-1.41a.27.27,0,0,0-.18,0,1.07,1.07,0,0,1-.57-.24,7.48,7.48,0,0,0-1.21-.73c-.47-.18-.88-.49-1.36-.62s-.92-.58-1.47-.67a.19.19,0,0,1-.1,0,6.32,6.32,0,0,0-2-1.24c-1.16-.57-2.28-1.21-3.46-1.74a6.41,6.41,0,0,1-1.13-.6,2.33,2.33,0,0,0-.64-.23,10.63,10.63,0,0,1-.93-.53,18.24,18.24,0,0,0-2.13-1,10.39,10.39,0,0,1-1.52-.86,7.6,7.6,0,0,1-1-.59.85.85,0,0,0-.84-.14A1.7,1.7,0,0,1,99.65,96.84Z" transform="translate(-0.82 -4.17)" style="fill:#8750e6"/><path d="M130.15,87.6a.37.37,0,0,1-.54.07,9.65,9.65,0,0,0-1.45-.52c-.67-.27-1.38-.42-2-.66a6.72,6.72,0,0,0-1.42-.36,6.71,6.71,0,0,1-1.14-.4c-.52-.17-1-.34-1.55-.48s-1.17-.34-1.75-.51-1.32-.45-2-.64-1.5-.55-2.27-.74a7,7,0,0,1-1.14-.39,9.93,9.93,0,0,0-1-.26c-.86-.26-1.7-.57-2.56-.8a6.08,6.08,0,0,0-1.37-.44,2.16,2.16,0,0,1-.66-.26l.42-.18a2.39,2.39,0,0,1,.94.16c.94.3,1.89.56,2.82.86a17.14,17.14,0,0,1,2.1.68c.19.09.41.07.61.15,1.8.65,3.66,1.15,5.48,1.73l3.75,1.16c.85.26,1.72.48,2.56.81.55.21,1.15.29,1.72.49a.62.62,0,0,1,.42.32A.24.24,0,0,1,130.15,87.6Z" transform="translate(-0.82 -4.17)" style="fill:#fe429b"/><path d="M100,97.55a.47.47,0,0,1,.66-.08c.65.47,1.37.79,2,1.22a5.38,5.38,0,0,0,1.87.8s.11,0,.13,0c.25.56,1,.42,1.32.89a1.42,1.42,0,0,0,.69.29,1.1,1.1,0,0,1,.49.17c.63.6,1.52.69,2.21,1.17.38.26.86.38,1.24.63a16.84,16.84,0,0,1,2.22,1.18.94.94,0,0,0,.34.14c.19.07.37.14.43.37a.38.38,0,0,0,.11.13c.36-.18.61.17.77.3s.57.2.83.37a17.53,17.53,0,0,1,1.83.94c.27.22.75.16.84.61,0,0,.06,0,.09,0,.69-.13,1.14.4,1.69.62.88.35,1.66.92,2.54,1.31.24.1.49.23.73.35a.39.39,0,0,0,.45,0,.23.23,0,0,1,.22.13,3.49,3.49,0,0,1-.75.31c-.12-.3-.41-.22-.63-.28a.69.69,0,0,1-.3-.17,2,2,0,0,0-1.1-.59.7.7,0,0,1-.56-.33,1.42,1.42,0,0,0-.68-.44c-1-.39-2-1-3-1.43s-1.71-.86-2.57-1.27-1.46-.79-2.21-1.15c-.37-.18-.81-.21-1-.63a.27.27,0,0,0-.33-.09.45.45,0,0,1-.57-.3c-.06-.17-.19-.22-.35-.28-.45-.19-.87-.46-1.33-.63a10.93,10.93,0,0,1-1.49-.75,12.5,12.5,0,0,1-1.88-1,6.67,6.67,0,0,0-.66-.31c-.57-.33-1.22-.49-1.77-.85a2.21,2.21,0,0,0-.72-.36.82.82,0,0,1-.59-.42c-.17-.31-.53-.21-.79-.33a1.3,1.3,0,0,1-.4-.28A.05.05,0,0,1,100,97.55Z" transform="translate(-0.82 -4.17)" style="fill:#8850e6"/><path d="M130.08,87.39a2.36,2.36,0,0,0-1-.41c-.61-.19-1.23-.31-1.83-.54s-1.34-.39-2-.62a20.45,20.45,0,0,1-2.13-.71,6.25,6.25,0,0,0-1.24-.31c-.47-.11-.88-.36-1.37-.44a7.75,7.75,0,0,1-1.32-.41,17.74,17.74,0,0,1-2.55-.85,2,2,0,0,0-.64-.16,8.1,8.1,0,0,1-1.29-.42c-.56-.17-1.13-.32-1.7-.5-.81-.24-1.61-.51-2.44-.7l0,0a1.4,1.4,0,0,0-.86-.27l.77-.34a3.85,3.85,0,0,0,1.31.41.58.58,0,0,1,.19,0,27.41,27.41,0,0,0,2.82.94,17.13,17.13,0,0,0,2.21.69c.86.2,1.68.51,2.53.75,1.07.3,2.1.69,3.16,1a4.11,4.11,0,0,0,1.34.32c1.54.62,3.18,1,4.72,1.56a6,6,0,0,1,.73.17.92.92,0,0,1,.25.15C130,86.86,130,87.14,130.08,87.39Z" transform="translate(-0.82 -4.17)" style="fill:#fe459e"/><path d="M129,85a2.46,2.46,0,0,1,.3.75c-.13.22-.3.15-.48.07a20.4,20.4,0,0,0-2.86-.95c-.39-.1-.75-.26-1.13-.38-1.26-.4-2.54-.71-3.78-1.15s-2.67-.81-4-1.28a8.74,8.74,0,0,0-1.75-.49,6.38,6.38,0,0,1-1.07-.35c-.8-.27-1.61-.52-2.42-.77-.09,0-.19-.06-.22-.17a2.44,2.44,0,0,1,.77-.35,6.69,6.69,0,0,1,1.37.46c1.33.38,2.63.85,4,1.22.27.07.49.24.76.3,1.39.3,2.72.8,4.07,1.23.82.25,1.63.56,2.45.77s1.77.58,2.67.8A4.47,4.47,0,0,0,129,85Z" transform="translate(-0.82 -4.17)" style="fill:#fe4fa2"/><path d="M129,85c0,.12,0,.24-.24.17-1-.34-2-.69-3-1a8.21,8.21,0,0,1-1.82-.58,3.29,3.29,0,0,0-.67-.16c-.54-.14-1.06-.4-1.6-.51a21.88,21.88,0,0,0-2.51-.74,3.12,3.12,0,0,1-1.22-.42,2.65,2.65,0,0,0-.69-.22c-.67-.15-1.3-.46-2-.62s-1.31-.44-2-.59a4.08,4.08,0,0,1-.9-.42l.52-.23c.71.12,1.35.46,2,.61.94.19,1.82.58,2.73.85a22,22,0,0,1,2.38.76,8.08,8.08,0,0,0,1,.29c.91.22,1.77.59,2.68.81.58.14,1.11.45,1.7.56,1.08.21,2.07.71,3.14.94a1.75,1.75,0,0,1,.24.11A.64.64,0,0,1,129,85Z" transform="translate(-0.82 -4.17)" style="fill:#fe53a4"/><path d="M103.33,105.58c.17,0,.34-.11.42.13a.17.17,0,0,0,.1.1,15.71,15.71,0,0,1,2.86,1.38,6,6,0,0,0,.88.49,9.41,9.41,0,0,1,1.52.77c.63.26,1.21.64,1.82.94s1,.47,1.55.75.93.49,1.39.76,1,.47,1.51.7a3.15,3.15,0,0,1,.91.56.54.54,0,0,1-.18,0c-1.45-.58-2.9-1.14-4.34-1.75-.64-.27-1.3-.49-1.92-.79,0-.09,0-.13-.12-.17-.67-.27-1.3-.61-2-.91s-1.21-.69-1.82-1-1.23-.65-1.85-1a.51.51,0,0,0-.4-.05A4.24,4.24,0,0,1,103.33,105.58Z" transform="translate(-0.82 -4.17)" style="fill:#9c6fea"/><path d="M132.24,92.62a11.54,11.54,0,0,0-1.27-.5.69.69,0,0,0-.64-.11c-.07,0-.14,0-.21,0a20.53,20.53,0,0,0-2.28-.8c-.63-.17-1.23-.46-1.86-.62a11,11,0,0,0-1.8-.46,3.36,3.36,0,0,1-.79-.27c-.33-.12-.66-.2-1-.32a11.94,11.94,0,0,1-1.79-.54c-.33-.19-.75,0-1-.34,0,0,0,.08,0,.12L118.16,88c0-.29.25-.23.42-.19a4.36,4.36,0,0,1,1.33.35.51.51,0,0,0,.25,0,3,3,0,0,1,.88.29l.83.23c.24,0,.45.18.7.2a4.63,4.63,0,0,0,1.14.38,24.15,24.15,0,0,0,2.63.8c.62.17,1.23.39,1.85.57.88.26,1.73.62,2.63.81a3.46,3.46,0,0,1,1.2.63A1.7,1.7,0,0,1,132.24,92.62Z" transform="translate(-0.82 -4.17)" style="fill:#fe238c"/><path d="M128.87,84.63c-.43.06-.78-.2-1.18-.27-.73-.13-1.38-.53-2.13-.66a5.27,5.27,0,0,1-1.46-.46,16.08,16.08,0,0,0-1.58-.48c-.81-.29-1.65-.49-2.48-.74s-1.57-.54-2.36-.77c-.63-.19-1.24-.42-1.86-.61s-1.2-.33-1.8-.51c-.37-.11-.73-.28-1.1-.43l.75-.3a.31.31,0,0,1,.1,0,21.37,21.37,0,0,0,2.83,1c1.34.44,2.68.84,4,1.25.74.22,1.46.49,2.2.7,1.09.32,2.15.72,3.26,1,.63.15,1.23.4,1.84.61a2.11,2.11,0,0,0,.43.12.57.57,0,0,0,.29,0A1.65,1.65,0,0,1,128.87,84.63Z" transform="translate(-0.82 -4.17)" style="fill:#fe56a7"/><path d="M125.5,82.18c.92.28,1.78.72,2.68,1a.35.35,0,0,1,.24.34c0,.18-.09.21-.22.23a16.75,16.75,0,0,0-2.07-.69c-1.17-.27-2.24-.83-3.4-1.08-1-.23-1.93-.61-2.91-.87s-2.15-.7-3.23-1l-2.38-.72a.2.2,0,0,1-.11,0c-.08,0-.12-.09-.06-.17.24,0,.41-.25.66-.24a2.54,2.54,0,0,1,1.31.34c.85.3,1.73.54,2.6.79.22.07.45.12.67.2.87.34,1.79.53,2.67.84.38.14.78.22,1.17.34a8.42,8.42,0,0,1,1,.36,1.76,1.76,0,0,0,.6.19c.07,0,.18,0,.21.06C125.11,82.49,125.32,82.21,125.5,82.18Z" transform="translate(-0.82 -4.17)" style="fill:#fe5da9"/><path d="M115.47,87.32c-.59.08-1-.38-1.51-.5a8.92,8.92,0,0,1-1.62-.49c-.75-.34-1.57-.39-2.34-.68a22,22,0,0,0-3.11-1,16.29,16.29,0,0,1-1.75-.58c-.42-.14-.85-.26-1.28-.38.06-.12,0-.27.15-.37a2.16,2.16,0,0,1,1.52.21c.32.12.64.26,1,.36,1.43.44,2.85.9,4.27,1.33a22.33,22.33,0,0,0,2.64.81,7.3,7.3,0,0,1,1.06.35,3.4,3.4,0,0,0,.94.23c.08,0,.15.09.24.08.33,0,.31.15.19.37A.62.62,0,0,1,115.47,87.32Z" transform="translate(-0.82 -4.17)" style="fill:#fe238c"/><path d="M125.5,82.18c-.16.42-.47.11-.71.2,0-.21.15,0,.19-.12a0,0,0,0,0,0-.07c-.53.08-.92-.44-1.45-.34-.09,0-.13,0-.16-.13a.19.19,0,0,0-.19-.15,10.62,10.62,0,0,1-2.53-.73c-1.24-.33-2.45-.76-3.68-1.1a12.13,12.13,0,0,1-1.69-.61c-.17-.08-.4.11-.53-.12a.77.77,0,0,1,.52-.22,4.75,4.75,0,0,1,2.19.53c.59.24,1.24.25,1.83.48.16.06.34.07.45.24s.17.08.27.07a3.25,3.25,0,0,1,.44,0l4.88,2A1.59,1.59,0,0,1,125.5,82.18Z" transform="translate(-0.82 -4.17)" style="fill:#fe60ab"/><path d="M111.63,80.28c.7.21,1.41.4,2.11.62a5.61,5.61,0,0,1,.84.32,8,8,0,0,0,1.59.46c1,.27,1.91.63,2.88.9.65.18,1.29.41,1.93.62a6,6,0,0,0,2,.53c.17,0,.19.19.33.22.84.2,1.65.53,2.48.76s1.79.63,2.73.83c.22,0,.35.33.63.27l.13-.06c.1.08.08.19.1.29-.27.16-.52,0-.74-.09-1.06-.32-2.11-.65-3.16-1l-.1,0a17.37,17.37,0,0,1-2.33-.71c-1-.23-2-.63-3.07-.94a18.47,18.47,0,0,1-2.26-.71c-.59-.27-1.27-.34-1.89-.58-1.09-.43-2.27-.63-3.37-1.06a5.19,5.19,0,0,0-1-.24.47.47,0,0,1-.17,0c-.22-.15-.06-.24,0-.34Z" transform="translate(-0.82 -4.17)" style="fill:#fe4ba1"/><path d="M132,92.1A21.3,21.3,0,0,0,128.83,91c-.82-.28-1.65-.55-2.49-.76s-1.7-.49-2.54-.74c0,0-.07-.07-.1-.11a11.29,11.29,0,0,0-1.12-.37c-.28.09-.49-.17-.75-.15a.82.82,0,0,0-.82-.23,2.43,2.43,0,0,0-.83-.3,3.25,3.25,0,0,0-1-.37c-.26-.06-.37-.19-.23-.45a4.39,4.39,0,0,0,.44.21c.58.17,1.14.42,1.72.56s1.2.42,1.82.57,1.33.46,2,.63c.89.21,1.73.56,2.62.75a8.48,8.48,0,0,1,1.6.57,1.53,1.53,0,0,0,.5.1c.44,0,.76.35,1.18.41a4.19,4.19,0,0,0,.86.09A2.81,2.81,0,0,1,132,92.1Z" transform="translate(-0.82 -4.17)" style="fill:#fe268e"/><path d="M115.47,86.72a5,5,0,0,1-1.89-.49c-.18-.06-.37-.07-.56-.13-.53-.18-1.06-.37-1.6-.53-1-.29-1.92-.66-2.89-.93a18.82,18.82,0,0,0-2.44-.69c-.33,0-.53-.32-.87-.39a12.21,12.21,0,0,0-1.21-.2,2,2,0,0,1,.82-.3,15.66,15.66,0,0,0,2,.7c.77.29,1.57.45,2.34.72s1.63.54,2.46.79c1.18.36,2.37.69,3.54,1.09.33.11.71.09,1,.36A1,1,0,0,1,115.47,86.72Z" transform="translate(-0.82 -4.17)" style="fill:#fe268d"/><path d="M111.5,80.59a6.37,6.37,0,0,1,1.22.29,19.61,19.61,0,0,0,2.41.7,5.7,5.7,0,0,1,1.34.49,2.49,2.49,0,0,0,.74.21,17.4,17.4,0,0,1,1.85.61,24.74,24.74,0,0,1,3.11,1,9.12,9.12,0,0,0,1.38.4,3.32,3.32,0,0,1,1.25.5.17.17,0,0,0,.1,0,10,10,0,0,1,2.28.63,10.54,10.54,0,0,0,1.83.5c.15,0,.24.2.41.14a.2.2,0,0,1,.12.23c.06.1,0,.11-.09.13l-.1,0-.19-.07-.09,0c-.61-.22-1.26-.33-1.87-.56a.79.79,0,0,1-.22,0,1,1,0,0,0-.27-.14c-.82-.15-1.58-.48-2.38-.7a4.78,4.78,0,0,1-.67-.22,8.11,8.11,0,0,0-1.74-.52c-.27,0-.51-.2-.78-.24-.59-.29-1.28-.3-1.88-.59a5.87,5.87,0,0,0-.82-.23c-1.1-.38-2.22-.72-3.34-1.05l-.18,0c-1-.34-2-.67-3-1C111.75,80.9,111.5,80.87,111.5,80.59Z" transform="translate(-0.82 -4.17)" style="fill:#fe4ba1"/><path d="M103.7,106.49c0-.21.19-.15.28-.1l2,1c.69.36,1.32.79,2,1.11A5.4,5.4,0,0,1,109,109a3.77,3.77,0,0,0,.76.35c.16.06.24.11,0,.23l-5.66-2.27a.38.38,0,0,1-.25-.24C103.87,106.9,103.78,106.69,103.7,106.49Z" transform="translate(-0.82 -4.17)" style="fill:#9e71e9"/><path d="M114.94,81.86h.15a1,1,0,0,0,.58.32,8.54,8.54,0,0,1,1.57.45c1.07.33,2.12.69,3.2,1,.32.09.61.27.94.34l.11,0c.56.17,1.13.3,1.68.49l.1,0a2.23,2.23,0,0,0,.44.13.36.36,0,0,1,.19.08c0,.07.14.11.1.22a4.54,4.54,0,0,1-1.65-.4c-1.29-.37-2.55-.85-3.85-1.21s-2.44-.75-3.67-1.09c-.41-.12-.8-.34-1.22-.44-.91-.22-1.76-.63-2.69-.76a.59.59,0,0,1-.47-.34l.6-.23a.12.12,0,0,1,0,.15s0,0-.09,0,.06,0,.09,0a.28.28,0,0,1,.25,0,21.47,21.47,0,0,0,3.49,1.2A.23.23,0,0,0,114.94,81.86Z" transform="translate(-0.82 -4.17)" style="fill:#fe489f"/><path d="M120.4,80.08a.72.72,0,0,1-.42.13c-.16,0-.33.09-.45-.2s-.46-.15-.71-.24a19.14,19.14,0,0,1-1.85-.53,2.43,2.43,0,0,0-1.55-.37c-.06,0-.13-.05-.2-.08l.85-.39a.26.26,0,0,1,.24,0Z" transform="translate(-0.82 -4.17)" style="fill:#fc64ad"/><path d="M104.83,103c-.5-.22-1-.42-1.5-.67a5.49,5.49,0,0,0-1.21-.55c-.16,0-.15-.39-.42-.22a2.09,2.09,0,0,1-.32-.73c.2.12.13-.16.25-.17,0,.27.09.46.39.47s.52.36.85.42a2.35,2.35,0,0,1,1.06.55.53.53,0,0,0,.39.08c.16,0,.22.07.21.22s.23.19.35.26.18.14.14.27S104.93,103.1,104.83,103Z" transform="translate(-0.82 -4.17)" style="fill:#915ee6"/><path d="M115.47,86.72h.67a2.86,2.86,0,0,1,1.42.42,3.36,3.36,0,0,0,1.42.33c0,.23.06.34.31.4s.69.08.89.42a.75.75,0,0,1-.46-.11c-.41-.24-.89-.17-1.32-.33a.21.21,0,0,0-.24.14c-.41-.23-.84-.44-1.23-.7a1.22,1.22,0,0,0-1.09-.19c0-.09-.13-.18.06-.26C115.73,86.77,115.54,87,115.47,86.72Z" transform="translate(-0.82 -4.17)" style="fill:#fe268d"/><path d="M123.63,94.13a.89.89,0,0,0,.51.07h8.32a.52.52,0,0,1-.46.15h-8a.77.77,0,0,1-.4-.07Z" transform="translate(-0.82 -4.17)" style="fill:#fd208c"/><path d="M128.19,83.73a.22.22,0,0,0,.23-.16,1.19,1.19,0,0,1,.23.53c0,.19-.13.13-.23.08s-.28-.17-.32-.34S128.16,83.76,128.19,83.73Z" transform="translate(-0.82 -4.17)" style="fill:#fd59a8"/><path d="M119.66,110.8s.15-.27-.12-.15c-.07,0-.17.1-.18-.06s.34-.14.52-.15.18-.09.2-.06-.08.07-.07.15.06,0,.11.07Z" transform="translate(-0.82 -4.17)" style="fill:#915ee6"/><path d="M129.39,86.35a.15.15,0,0,0,.15-.08.92.92,0,0,1,.17.45c-.09,0-.18,0-.24-.07S129.3,86.48,129.39,86.35Z" transform="translate(-0.82 -4.17)" style="fill:#fe49a0"/><path d="M111.05,80.59v-.13a.73.73,0,0,1,.37-.16c0,.11-.17.16-.07.29A.26.26,0,0,1,111.05,80.59Z" transform="translate(-0.82 -4.17)" style="fill:#fe4ba1"/><path d="M114,79.25a.14.14,0,0,0,.08.14c-.11.27-.3.07-.45.08V79.4A.64.64,0,0,1,114,79.25Z" transform="translate(-0.82 -4.17)" style="fill:#fe5aa8"/><path d="M130.52,88.82a.23.23,0,0,0,.08-.18.71.71,0,0,1,.16.4A.38.38,0,0,1,130.52,88.82Z" transform="translate(-0.82 -4.17)" style="fill:#fd3a98"/><path d="M120.11,110.6a.39.39,0,0,1,.39-.16A.59.59,0,0,1,120.11,110.6Z" transform="translate(-0.82 -4.17)" style="fill:#915ee6"/><path d="M112.89,95.23a.88.88,0,0,1,.3-.62c.82-.78,1.61-1.59,2.48-2.31a.77.77,0,0,1,1.1,0l1.87,1.92c.19.2.42.34.6.54a.78.78,0,0,1,0,1.16c-.88.77-1.7,1.6-2.56,2.38a.7.7,0,0,1-1,0c-.92-.82-1.75-1.73-2.61-2.61A.77.77,0,0,1,112.89,95.23Z" transform="translate(-0.82 -4.17)" style="fill:#333"/><path d="M101.66,96.38l-.43,0C101.44,96.29,101.56,96.28,101.66,96.38Z" transform="translate(-0.82 -4.17)" style="fill:#8247e4"/><path d="M119.88,110.44c-.14.15-.37,0-.52.15-.21-.31-.6-.28-.89-.48a8.92,8.92,0,0,0-1.06-.57c-.49-.24-1-.52-1.45-.76-.66-.33-1.34-.61-2-1a10.53,10.53,0,0,0-1.94-.94.43.43,0,0,1-.27-.24.23.23,0,0,0-.23-.16,1.63,1.63,0,0,1-1-.43,10.11,10.11,0,0,0-1.48-.72c-.5-.24-1-.53-1.5-.77-.94-.45-1.85-1-2.77-1.52.08,0,.15,0,.14-.13a.18.18,0,0,0-.21-.16c-.2,0-.36,0-.23-.31a1.13,1.13,0,0,1,.89.57s.1.07.16.07c.45.05.75.43,1.19.51.28,0,.49.3.77.42a17.85,17.85,0,0,1,2,1c.25.15.6.09.8.36a2,2,0,0,0,1.11.58c.25.08.45.29.73.35a3.09,3.09,0,0,1,.93.5,7.87,7.87,0,0,1,.84.48,15.39,15.39,0,0,0,1.42.66c.07.05.16.07.19.16s-.12.08-.24.1a4.87,4.87,0,0,1,.56.28c.12.06.23.09.28-.08a6.8,6.8,0,0,1,.68.52c.15.21.37.21.6.23a2.63,2.63,0,0,1,.82.45s-.09,0-.07.1.09.07.15.06.15-.1.22-.16a3,3,0,0,0,.75.44c0,.08-.09.17,0,.19a2.72,2.72,0,0,1,.47.19Z" transform="translate(-0.82 -4.17)" style="fill:#915ee7"/><path d="M116.21,108.42c.07.18,0,.31-.18.21s-.5-.25-.75-.38c.08-.18.22-.11.33-.13A.52.52,0,0,1,116.21,108.42Z" transform="translate(-0.82 -4.17)" style="fill:#915ee6"/><path d="M119.88,110.44c-.19,0-.38-.06-.56-.11s-.22,0-.2-.17.15-.09.24-.1a.24.24,0,0,0,.1,0C119.7,110.1,119.85,110.19,119.88,110.44Z" transform="translate(-0.82 -4.17)" style="fill:#915ee6"/><path d="M117.49,109.17c-.28.12-.53.18-.6-.23C117.13,108.89,117.36,108.9,117.49,109.17Z" transform="translate(-0.82 -4.17)" style="fill:#915ee6"/><path d="M118.61,109.62c0,.14,0,.28-.2.29s-.28-.16-.4-.28c.12-.12.21,0,.3,0Z" transform="translate(-0.82 -4.17)" style="fill:#915ee6"/><path d="M129.39,86.35l.08.3c-1.29-.26-2.48-.8-3.74-1.15a9.47,9.47,0,0,1-1.73-.57l-.15-.15c.25-.15.48,0,.71.06.51.15,1,.38,1.51.5a3,3,0,0,1,.93.26h.22a6.92,6.92,0,0,0,1.78.6.51.51,0,0,1,.17.07C129.22,86.36,129.32,86.32,129.39,86.35Z" transform="translate(-0.82 -4.17)" style="fill:#fe49a0"/><path d="M122.58,89a.31.31,0,0,1,.31,0c.27.15.54.28.81.41A1.82,1.82,0,0,1,122.58,89Z" transform="translate(-0.82 -4.17)" style="fill:#fe268d"/><path d="M121,88.59a.56.56,0,0,1,.82.23A3,3,0,0,0,121,88.59Z" transform="translate(-0.82 -4.17)" style="fill:#fe268d"/><path d="M113.67,79.47c.13-.17.32.1.45-.08.37.1.72.27,1.1.36.82.19,1.61.49,2.42.73s1.55.44,2.3.73,1.48.39,2.19.7a9,9,0,0,0,1.19.31,10.38,10.38,0,0,1,1.22.43c.92.36,1.9.51,2.81.87a3.39,3.39,0,0,1,.77.29c.06.15.33.14.3.37a4.49,4.49,0,0,1-1.13-.35c-1-.35-2.06-.58-3.08-.94-.55-.19-1.1-.36-1.66-.53s-1.26-.43-1.9-.61-1.51-.47-2.28-.68c-1.13-.31-2.23-.73-3.36-1A3.51,3.51,0,0,1,113.67,79.47Z" transform="translate(-0.82 -4.17)" style="fill:#fe59a8"/><path d="M128.12,83.81a5.73,5.73,0,0,1-1.29-.35c-.85-.3-1.75-.44-2.58-.81s-1.55-.41-2.28-.73-1.5-.36-2.19-.67a16.65,16.65,0,0,0-2.12-.65,23,23,0,0,0-2.8-.83,2,2,0,0,1-.74-.38c.17-.23.35,0,.48,0a3.6,3.6,0,0,0,1,.26,7.34,7.34,0,0,1,.89.33,7.46,7.46,0,0,1,1.42.43,7.65,7.65,0,0,0,1.33.43c.41.13.82.28,1.24.37a15.63,15.63,0,0,0,2.18.63,7.59,7.59,0,0,1,1.18.36c.71.18,1.34.58,2.08.7a3.94,3.94,0,0,1,1.34.42c.3.16.69.12,1,.37Z" transform="translate(-0.82 -4.17)" style="fill:#fe5aa8"/><path d="M111.05,80.59h.45a.53.53,0,0,0,.39.26c.7.14,1.34.49,2,.66a4,4,0,0,1,1,.35c-.07.19-.22.1-.31.07-.79-.27-1.61-.46-2.4-.76a3.43,3.43,0,0,1-1-.44c-.16-.12-.33.1-.49,0Z" transform="translate(-0.82 -4.17)" style="fill:#fe49a0"/><path d="M121.46,84c-.25,0-.42-.14-.63-.19-1-.24-1.94-.66-3-.87-.36-.08-.68-.27-1-.37s-.89-.28-1.35-.38c-.18,0-.42-.08-.4-.36a12,12,0,0,0,1.55.47c.76.21,1.5.5,2.26.73a11.44,11.44,0,0,1,2,.63.72.72,0,0,0,.22,0C121.26,83.83,121.45,83.83,121.46,84Z" transform="translate(-0.82 -4.17)" style="fill:#fe49a0"/><path d="M121.46,84c-.09-.11-.25-.15-.3-.3.75.29,1.56.4,2.33.68a22.24,22.24,0,0,0,3.1,1,.51.51,0,0,1,.41.23,11.45,11.45,0,0,1-2.39-.67,1.55,1.55,0,0,0-.76-.15.16.16,0,0,0-.15-.08,2.16,2.16,0,0,0-.45-.15A14.07,14.07,0,0,0,121.46,84Z" transform="translate(-0.82 -4.17)" style="fill:#fe49a0"/><path d="M129.17,86.27c-.66-.19-1.4-.15-1.95-.67.61.23,1.25.37,1.88.55C129.13,86.16,129.15,86.23,129.17,86.27Z" transform="translate(-0.82 -4.17)" style="fill:#fe49a0"/><path d="M129.39,86.35c-.09,0-.2.12-.22-.08C129.25,86.28,129.34,86.26,129.39,86.35Z" transform="translate(-0.82 -4.17)" style="fill:#fe49a0"/><path d="M121.46,84a4.51,4.51,0,0,1,1.79.52A11.11,11.11,0,0,1,121.46,84Z" transform="translate(-0.82 -4.17)" style="fill:#fe49a0"/><path d="M123.25,84.55a.53.53,0,0,1,.45.15A.68.68,0,0,1,123.25,84.55Z" transform="translate(-0.82 -4.17)" style="fill:#fe49a0"/><path d="M116.17,93.91l.13.12,1.14,1.18c.14.13.16.21,0,.35-.37.34-.72.71-1.08,1.07-.09.09-.17.09-.25,0a15.34,15.34,0,0,0-1.29-1.26c-.1-.08-.11-.14,0-.23A12.35,12.35,0,0,0,116.08,94Z" transform="translate(-0.82 -4.17)" style="fill:#fefefe"/></svg>