<?xml version="1.0" encoding="utf-8"?>
<!-- Generator: Adobe Illustrator 24.3.0, SVG Export Plug-In . SVG Version: 6.00 Build 0)  -->
<svg version="1.1" id="Capa_1" xmlns="http://www.w3.org/2000/svg" xmlns:xlink="http://www.w3.org/1999/xlink" x="0px" y="0px"
	 viewBox="0 0 20 19.8" style="enable-background:new 0 0 20 19.8;" xml:space="preserve">
<style type="text/css">
	.st0{fill:#FFFFFF;}
</style>
<path class="st0" d="M12.9,2.8H7.1c-0.9,0-1.7,0.8-1.7,1.7l0,0v2.1c0,0.2,0.2,0.4,0.4,0.4c0,0,0,0,0,0c0.2,0,0.4-0.2,0.4-0.4V4.5
	c0-0.6,0.4-1,1-1h0.7C7.8,3.8,8,4,8.3,4h3.4c0.3,0,0.5-0.2,0.6-0.5h0.6c0.6,0,1,0.4,1,1c0,0,0,0,0,0v2.1c0,0.2,0.2,0.4,0.4,0.4
	c0.2,0,0.4-0.2,0.4-0.4c0,0,0,0,0,0V4.5C14.6,3.5,13.9,2.8,12.9,2.8C12.9,2.8,12.9,2.8,12.9,2.8z"/>
<path class="st0" d="M14.2,13.4c-0.2,0-0.4,0.2-0.4,0.4v1.6c0,0.6-0.4,1-1,1h0H7.1c-0.6,0-1-0.4-1-1v-1.6c0-0.2-0.2-0.4-0.4-0.4
	c-0.2,0-0.4,0.2-0.4,0.4c0,0,0,0,0,0v1.6c0,0.9,0.8,1.7,1.7,1.7h0h5.8c0.9,0,1.7-0.8,1.7-1.7c0,0,0,0,0,0v-1.6
	C14.6,13.6,14.5,13.4,14.2,13.4C14.3,13.4,14.3,13.4,14.2,13.4z"/>
<path class="st0" d="M8.6,15.4c0,0.2,0.2,0.4,0.4,0.4l0,0h2c0.2,0,0.4-0.2,0.4-0.4c0-0.2-0.2-0.4-0.4-0.4H9
	C8.8,15.1,8.6,15.2,8.6,15.4z"/>
<path class="st0" d="M8,7.8C7.9,7.7,7.8,7.6,7.7,7.6l0,0c-0.1,0-0.3,0.1-0.3,0.2l-1.9,4.3c-0.1,0.2,0,0.4,0.2,0.5c0.1,0,0.1,0,0.2,0
	c0.1,0,0.3-0.1,0.3-0.2l0.6-1.3h2.1l0.6,1.3c0.1,0.2,0.3,0.3,0.5,0.2c0.2-0.1,0.3-0.3,0.2-0.5c0,0,0,0,0,0L8,7.8z M7,10.4l0.7-1.5
	l0.7,1.5L7,10.4z"/>
<path class="st0" d="M14.6,9.2c0-1-0.8-1.8-1.8-1.8h-1.8c-0.2,0-0.4,0.2-0.4,0.3c0,0,0,0.1,0,0.1c0,0,0,0,0,0.1v4.3
	c0,0.2,0.2,0.4,0.4,0.4c0.2,0,0.4-0.2,0.4-0.4v-1.2h1.4h0.2l1,1.4c0.1,0.1,0.2,0.2,0.3,0.2c0.1,0,0.2,0,0.2-0.1
	c0.2-0.1,0.2-0.3,0.1-0.5l-0.8-1.2C14.3,10.5,14.6,9.9,14.6,9.2z M12.7,10.3h-1.4V8.1h1.4c0.6,0,1.1,0.5,1.1,1.1
	C13.8,9.8,13.3,10.3,12.7,10.3z"/>
</svg>
