<?xml version="1.0" encoding="utf-8"?>
<!-- Generator: Adobe Illustrator 24.3.0, SVG Export Plug-In . SVG Version: 6.00 Build 0)  -->
<svg version="1.1" id="Layer_1" xmlns="http://www.w3.org/2000/svg" xmlns:xlink="http://www.w3.org/1999/xlink" x="0px" y="0px"
	 viewBox="0 0 832 182" style="enable-background:new 0 0 832 182;" xml:space="preserve">
<style type="text/css">
	.st0{enable-background:new    ;}
	.st1{fill:#FFFFFF;}
	.st2{font-family:'HoboStd';}
	.st3{font-size:141.0814px;}
	.st4{fill-rule:evenodd;clip-rule:evenodd;fill:#FFFFFF;stroke:#000000;stroke-width:0.5;stroke-miterlimit:2.6131;}
	.st5{fill-rule:evenodd;clip-rule:evenodd;fill:url(#SVGID_1_);}
	.st6{opacity:0.47;fill-rule:evenodd;clip-rule:evenodd;fill:url(#SVGID_2_);}
	.st7{fill-rule:evenodd;clip-rule:evenodd;fill:url(#SVGID_3_);}
	.st8{opacity:0.47;fill-rule:evenodd;clip-rule:evenodd;fill:url(#SVGID_4_);}
	
		.st9{fill-rule:evenodd;clip-rule:evenodd;fill:none;stroke:#333333;stroke-width:14.9998;stroke-linejoin:round;stroke-miterlimit:2.6131;}
	.st10{fill-rule:evenodd;clip-rule:evenodd;fill:none;}
	
		.st11{fill-rule:evenodd;clip-rule:evenodd;fill:none;stroke:#333333;stroke-width:12.24;stroke-linejoin:round;stroke-miterlimit:2.6131;}
</style>
<text id="text" transform="matrix(0.7256 0 0 1 215.7476 137.5598)" class="st0"><tspan x="0" y="0" class="st1 st2 st3">AER</tspan><tspan x="276.4" y="0" class="st1 st2 st3">O</tspan><tspan x="377.7" y="0" class="st1 st2 st3">VERSE</tspan></text>
<g>
	<rect x="49.5" y="48.3" class="st4" width="68.1" height="82.3"/>
	<linearGradient id="SVGID_1_" gradientUnits="userSpaceOnUse" x1="89.0274" y1="70.1378" x2="149.1935" y2="-44.4384">
		<stop  offset="0" style="stop-color:#6E54A3"/>
		<stop  offset="0.4737" style="stop-color:#B9ACD2"/>
		<stop  offset="0.8304" style="stop-color:#EBE8F2"/>
		<stop  offset="1" style="stop-color:#FFFFFF"/>
	</linearGradient>
	<polygon class="st5" points="54.3,84.6 11.8,85.6 31.9,33.6 83,10 134.5,33.1 156.9,86.2 112,87.4 112.6,71.5 83.5,53.3 55.4,70.3 
			"/>
	<linearGradient id="SVGID_2_" gradientUnits="userSpaceOnUse" x1="89.0274" y1="70.1378" x2="149.1935" y2="-44.4384">
		<stop  offset="0" style="stop-color:#6E54A3"/>
		<stop  offset="0.4737" style="stop-color:#B9ACD2"/>
		<stop  offset="0.8304" style="stop-color:#EBE8F2"/>
		<stop  offset="1" style="stop-color:#FFFFFF"/>
	</linearGradient>
	<polygon class="st6" points="54.3,84.6 11.8,85.6 31.9,33.6 83,10 134.5,33.1 156.9,86.2 112,87.4 112.6,71.5 83.5,53.3 55.4,70.3 
			"/>
	<linearGradient id="SVGID_3_" gradientUnits="userSpaceOnUse" x1="78.1288" y1="110.0743" x2="54.8215" y2="183.6123">
		<stop  offset="0" style="stop-color:#ED1685"/>
		<stop  offset="9.719479e-02" style="stop-color:#ED1C88"/>
		<stop  offset="0.2303" style="stop-color:#EF2E91"/>
		<stop  offset="0.3843" style="stop-color:#F14BA1"/>
		<stop  offset="0.5539" style="stop-color:#F473B6"/>
		<stop  offset="0.7362" style="stop-color:#F8A7D1"/>
		<stop  offset="0.9265" style="stop-color:#FDE5F1"/>
		<stop  offset="1" style="stop-color:#FFFFFF"/>
	</linearGradient>
	<polygon class="st7" points="54.3,91.8 11.8,90.8 31.9,142.8 83,166.4 134.5,143.3 156.9,90.1 112,89 112.6,104.9 83.5,123.1 
		55.4,106 	"/>
	<linearGradient id="SVGID_4_" gradientUnits="userSpaceOnUse" x1="78.1288" y1="110.0743" x2="54.8215" y2="183.6123">
		<stop  offset="0" style="stop-color:#ED1685"/>
		<stop  offset="9.719479e-02" style="stop-color:#ED1C88"/>
		<stop  offset="0.2303" style="stop-color:#EF2E91"/>
		<stop  offset="0.3843" style="stop-color:#F14BA1"/>
		<stop  offset="0.5539" style="stop-color:#F473B6"/>
		<stop  offset="0.7362" style="stop-color:#F8A7D1"/>
		<stop  offset="0.9265" style="stop-color:#FDE5F1"/>
		<stop  offset="1" style="stop-color:#FFFFFF"/>
	</linearGradient>
	<polygon class="st8" points="54.3,91.8 11.8,90.8 31.9,142.8 83,166.4 134.5,143.3 156.9,90.1 112,89 112.6,104.9 83.5,123.1 
		55.4,106 	"/>
	<g>
		<g>
			<polygon class="st9" points="84.3,78.6 93.5,88.9 83.8,98 74.7,87.6 			"/>
			<path class="st10" d="M84.3,78.6l9.1,10.4L83.8,98l-9.1-10.4L84.3,78.6z"/>
		</g>
		<line class="st11" x1="113.6" y1="88" x2="161" y2="88"/>
		<polygon class="st11" points="83.8,8.6 110.9,20.3 138,31.9 139.2,34.8 149.2,60.1 160.5,88.3 149.2,116.5 138,144.6 110.9,156.3 
			83.8,168 56.7,156.3 29.6,144.6 18.4,116.5 7.2,88.3 18.4,60.1 29.6,31.9 56.7,20.3 		"/>
		<polyline class="st11" points="8.9,88.4 18,88.4 56.3,88.4 		"/>
		<polygon class="st11" points="83.6,55.7 97.3,63.9 111,72.1 111,88.5 111,104.9 97.3,113.1 83.6,121.3 70,113.1 56.3,104.9 
			56.3,72.1 70,63.9 82.1,56.6 		"/>
	</g>
</g>
</svg>
