<?xml version="1.0" encoding="utf-8"?>
<!-- Generator: Adobe Illustrator 24.3.0, SVG Export Plug-In . SVG Version: 6.00 Build 0)  -->
<svg version="1.1" id="Layer_1" xmlns="http://www.w3.org/2000/svg" xmlns:xlink="http://www.w3.org/1999/xlink" x="0px" y="0px"
	 viewBox="0 0 832 182" style="enable-background:new 0 0 832 182;" xml:space="preserve">
<style type="text/css">
	.st0{fill:#9900CC;}
	.st1{font-family:'HoboStd';}
	.st2{font-size:100px;}
	.st3{fill-rule:evenodd;clip-rule:evenodd;fill:#FFFFFF;stroke:#000000;stroke-width:0.5;stroke-miterlimit:2.6131;}
	.st4{fill-rule:evenodd;clip-rule:evenodd;fill:url(#SVGID_1_);}
	.st5{opacity:0.47;fill-rule:evenodd;clip-rule:evenodd;fill:url(#SVGID_2_);}
	.st6{fill-rule:evenodd;clip-rule:evenodd;fill:url(#SVGID_3_);}
	.st7{opacity:0.47;fill-rule:evenodd;clip-rule:evenodd;fill:url(#SVGID_4_);}
	
		.st8{fill-rule:evenodd;clip-rule:evenodd;fill:none;stroke:#333333;stroke-width:14.9998;stroke-linejoin:round;stroke-miterlimit:2.6131;}
	.st9{fill-rule:evenodd;clip-rule:evenodd;fill:none;}
	
		.st10{fill-rule:evenodd;clip-rule:evenodd;fill:none;stroke:#333333;stroke-width:12.24;stroke-linejoin:round;stroke-miterlimit:2.6131;}
</style>
<text id="text" transform="matrix(1 0 0 1 228.748 127.235)" class="st0 st1 st2">AEROVERSE</text>
<g>
	<rect x="70.4" y="49.8" class="st3" width="76.2" height="84.8"/>
	<linearGradient id="SVGID_1_" gradientUnits="userSpaceOnUse" x1="114.5454" y1="73.1297" x2="179.4657" y2="-50.4999">
		<stop  offset="0" style="stop-color:#6E54A3"/>
		<stop  offset="0.4737" style="stop-color:#B9ACD2"/>
		<stop  offset="0.8304" style="stop-color:#EBE8F2"/>
		<stop  offset="1" style="stop-color:#FFFFFF"/>
	</linearGradient>
	<polygon class="st4" points="75.7,87.2 28.2,88.3 50.6,34.6 107.8,10.2 165.4,34.1 190.4,88.9 140.2,90.1 140.9,73.7 108.4,54.9 
		77,72.5 	"/>
	<linearGradient id="SVGID_2_" gradientUnits="userSpaceOnUse" x1="114.5454" y1="73.1297" x2="179.4657" y2="-50.4999">
		<stop  offset="0" style="stop-color:#6E54A3"/>
		<stop  offset="0.4737" style="stop-color:#B9ACD2"/>
		<stop  offset="0.8304" style="stop-color:#EBE8F2"/>
		<stop  offset="1" style="stop-color:#FFFFFF"/>
	</linearGradient>
	<polygon class="st5" points="75.7,87.2 28.2,88.3 50.6,34.6 107.8,10.2 165.4,34.1 190.4,88.9 140.2,90.1 140.9,73.7 108.4,54.9 
		77,72.5 	"/>
	<linearGradient id="SVGID_3_" gradientUnits="userSpaceOnUse" x1="103.1924" y1="112.4839" x2="78.6819" y2="189.8183">
		<stop  offset="0" style="stop-color:#ED1685"/>
		<stop  offset="9.719479e-02" style="stop-color:#ED1C88"/>
		<stop  offset="0.2303" style="stop-color:#EF2E91"/>
		<stop  offset="0.3843" style="stop-color:#F14BA1"/>
		<stop  offset="0.5539" style="stop-color:#F473B6"/>
		<stop  offset="0.7362" style="stop-color:#F8A7D1"/>
		<stop  offset="0.9265" style="stop-color:#FDE5F1"/>
		<stop  offset="1" style="stop-color:#FFFFFF"/>
	</linearGradient>
	<polygon class="st6" points="75.7,94.6 28.2,93.5 50.6,147.2 107.8,171.6 165.4,147.7 190.4,92.9 140.2,91.7 140.9,108.1 
		108.4,126.9 77,109.3 	"/>
	<linearGradient id="SVGID_4_" gradientUnits="userSpaceOnUse" x1="103.1924" y1="112.4839" x2="78.6819" y2="189.8183">
		<stop  offset="0" style="stop-color:#ED1685"/>
		<stop  offset="9.719479e-02" style="stop-color:#ED1C88"/>
		<stop  offset="0.2303" style="stop-color:#EF2E91"/>
		<stop  offset="0.3843" style="stop-color:#F14BA1"/>
		<stop  offset="0.5539" style="stop-color:#F473B6"/>
		<stop  offset="0.7362" style="stop-color:#F8A7D1"/>
		<stop  offset="0.9265" style="stop-color:#FDE5F1"/>
		<stop  offset="1" style="stop-color:#FFFFFF"/>
	</linearGradient>
	<polygon class="st7" points="75.7,94.6 28.2,93.5 50.6,147.2 107.8,171.6 165.4,147.7 190.4,92.9 140.2,91.7 140.9,108.1 
		108.4,126.9 77,109.3 	"/>
	<g>
		<g>
			<polygon class="st8" points="109.3,81 119.5,91.7 108.7,101 98.5,90.3 			"/>
			<path class="st9" d="M109.3,81l10.2,10.7l-10.8,9.3L98.5,90.3L109.3,81z"/>
		</g>
		<line class="st10" x1="142" y1="90.7" x2="195" y2="90.7"/>
		<polygon class="st10" points="108.7,8.8 139,20.8 169.3,32.9 170.6,35.8 181.8,61.9 194.4,91 181.8,120.1 169.3,149.1 139,161.2 
			108.7,173.2 78.4,161.2 48.1,149.1 35.6,120.1 23,91 35.6,61.9 48.1,32.9 78.4,20.8 		"/>
		<polyline class="st10" points="25,91.1 35.1,91.1 77.9,91.1 		"/>
		<polygon class="st10" points="108.5,57.4 123.8,65.9 139,74.3 139,91.2 139,108.1 123.8,116.6 108.5,125.1 93.2,116.6 77.9,108.1 
			77.9,74.3 93.2,65.9 106.8,58.3 		"/>
	</g>
</g>
</svg>
